<svg id="Capa_1" data-name="Capa 1" xmlns="http://www.w3.org/2000/svg" viewBox="0 0 898.25 898.25"><defs><style>.cls-1{fill:#fff;}</style></defs><path class="cls-1" d="M50.88,500c0,136.08,60.52,258,156.12,340.39V159.61C111.4,242,50.88,363.92,50.88,500Z" transform="translate(-50.88 -50.88)"/><path class="cls-1" d="M683.33,89.88A450.91,450.91,0,0,0,368,70.6V422.15Z" transform="translate(-50.88 -50.88)"/><path class="cls-1" d="M857.39,772a447.17,447.17,0,0,0,91.73-272c0-134.6-59.21-255.37-153-337.68L568.68,407.88Z" transform="translate(-50.88 -50.88)"/><path class="cls-1" d="M368,617.75V929.4a450.18,450.18,0,0,0,372.51-50L460.94,520.73Z" transform="translate(-50.88 -50.88)"/></svg>