<svg id="Capa_1" data-name="Capa 1" xmlns="http://www.w3.org/2000/svg" viewBox="0 0 954 727.34"><defs><style>.cls-1{fill:#fff;}</style></defs><title>SKILLS</title><path class="cls-1" d="M211.55,677.23q-34.67,0-49.55-14.89t-16.11-49.2q-.18-7-.26-14.19t.26-14.54q.35-7.32,1.05-14.11h42.32q-.7,13.41-.79,26.56t.79,24.47q.86,9.23,6.18,14.1t16.28,4.88q10.46,0,15.24-4.88t6-14.1q.53-6.8.78-13.15t0-12.72q-.25-6.35-.78-13.67a39.42,39.42,0,0,0-4.53-15.32q-3.66-6.62-12.36-8.88l-26-6.45q-16.9-4.53-26.74-12.8a45.9,45.9,0,0,1-14.1-20.81Q145,505,144.5,487.92q-.18-8.7-.09-16.54t.26-15.67q1.05-22.81,7.67-36.75a41.4,41.4,0,0,1,21-20.46q14.37-6.54,38.4-6.54,33.27,0,48.42,14.81t16.72,48.94q.34,8,0,19.67t-.7,22.47H233q.53-12.54.61-25.16t-.44-25.17q-.16-9.22-5.83-14t-15.76-4.79q-10.8,0-15.94,4.79t-6,14q-.87,10.1-.87,20.29t.87,20.11a34.15,34.15,0,0,0,4.53,15.33q3.83,6.27,13.24,8.53l22.81,5.58q18.12,4.17,28.3,12.8a48.15,48.15,0,0,1,14.63,21.5q4.44,12.9,5,30.13.18,5.75.27,10.89t-.09,10.1q-.18,5-.35,10.36-1.56,34.3-16.46,49.2T211.55,677.23Z" transform="translate(-23 -136.33)"/><path class="cls-1" d="M296.18,673.92V395.27H343.9l-.52,67.23-7.84,64.61h8.53L362,460.93l23.86-65.66h48.94l-44.93,117L437.6,673.92H391.79L359.92,562.64l-18.11,40.75v70.53Z" transform="translate(-23 -136.33)"/><path class="cls-1" d="M449.09,673.92V395.27H494V673.92Z" transform="translate(-23 -136.33)"/><path class="cls-1" d="M517.18,673.92V395.27h44.94V634.21h65.3v39.71Z" transform="translate(-23 -136.33)"/><path class="cls-1" d="M640.48,673.92V395.27h44.93V634.21h65.31v39.71Z" transform="translate(-23 -136.33)"/><path class="cls-1" d="M818.64,677.23q-34.65,0-49.55-14.89T753,613.14q-.16-7-.26-14.19t.26-14.54c.24-4.88.58-9.58,1-14.11h42.32q-.71,13.41-.79,26.56t.79,24.47q.87,9.23,6.18,14.1t16.28,4.88q10.46,0,15.24-4.88t6-14.1q.53-6.8.78-13.15t0-12.72q-.26-6.35-.78-13.67a39.42,39.42,0,0,0-4.53-15.32q-3.66-6.62-12.36-8.88l-25.95-6.45q-16.89-4.53-26.73-12.8a45.91,45.91,0,0,1-14.11-20.81q-4.27-12.54-4.79-29.61-.18-8.7-.09-16.54t.27-15.67q1-22.81,7.66-36.75a41.4,41.4,0,0,1,21-20.46q14.37-6.54,38.4-6.54,33.27,0,48.42,14.81T884,455.71q.34,8,0,19.67t-.7,22.47H840.06q.53-12.54.61-25.16t-.43-25.17q-.18-9.22-5.84-14t-15.76-4.79q-10.8,0-15.93,4.79t-6,14q-.88,10.1-.87,20.29t.87,20.11a34,34,0,0,0,4.52,15.33q3.84,6.27,13.24,8.53l22.81,5.58q18.12,4.17,28.3,12.8a48.07,48.07,0,0,1,14.63,21.5q4.44,12.9,5,30.13.17,5.75.26,10.89t-.09,10.1c-.12,3.31-.23,6.76-.35,10.36q-1.56,34.3-16.45,49.2T818.64,677.23Z" transform="translate(-23 -136.33)"/><path class="cls-1" d="M77.45,267l-1.16,6.5H53.65L40.53,348.17H32.4l13.12-74.66H23l1.16-6.5Z" transform="translate(-23 -136.33)"/><path class="cls-1" d="M88.6,284.77l12,53.76,30.3-53.76h8.47L85.35,378h-8.6L94.4,347.7,79.54,284.77Z" transform="translate(-23 -136.33)"/><path class="cls-1" d="M167.37,288.08a32.21,32.21,0,0,1,16.31-4.24q11.5,0,18.41,6.8t6.9,18.52a40.63,40.63,0,0,1-.69,7.19,42.52,42.52,0,0,1-7,17.19A36.73,36.73,0,0,1,188.5,345a34.06,34.06,0,0,1-16.31,4.06q-8.94,0-14.74-4.23a20.36,20.36,0,0,1-7.78-10.63L142,378.12h-8.12l16.48-93.35h8.13l-2.44,13.94A31.33,31.33,0,0,1,167.37,288.08Zm33.27,22.35q0-9.17-5.4-14.34T181,290.93a26.2,26.2,0,0,0-12.42,3.13,29.24,29.24,0,0,0-10.1,8.94,32.69,32.69,0,0,0-5.57,13.47,33.11,33.11,0,0,0-.58,5.8q0,9.06,5.45,14.4T172,342a26.73,26.73,0,0,0,12.6-3.07,28.28,28.28,0,0,0,10-8.94,33.73,33.73,0,0,0,5.52-13.65A37.68,37.68,0,0,0,200.64,310.43Z" transform="translate(-23 -136.33)"/><path class="cls-1" d="M270.06,286.92a21.09,21.09,0,0,1,8.65,8.42,24.64,24.64,0,0,1,3,12.19,29.91,29.91,0,0,1-.46,5.57c-.46,2.32-.93,4.41-1.39,6.27h-52.6a27.18,27.18,0,0,0-.35,4.18q0,8.94,5.4,13.82T246,342.24a25.62,25.62,0,0,0,14-3.83,22.45,22.45,0,0,0,8.82-10.33h8.71A34.15,34.15,0,0,1,265,343.23a35,35,0,0,1-20.14,5.86q-11.85,0-19-6.79t-7.14-18.52a41.23,41.23,0,0,1,.69-7.31,41.88,41.88,0,0,1,7-17.3,35.67,35.67,0,0,1,13.06-11.38,36.68,36.68,0,0,1,16.83-4A28.44,28.44,0,0,1,270.06,286.92Zm3.37,21q0-8.25-5.22-12.66t-13.36-4.41A26.32,26.32,0,0,0,234,301a28.9,28.9,0,0,0-5.58,12.3h44.47A31.55,31.55,0,0,0,273.43,307.88Z" transform="translate(-23 -136.33)"/><path class="cls-1" d="M302.86,346.54a19.67,19.67,0,0,1-8.53-6.85,17.41,17.41,0,0,1-3-10.1,16.9,16.9,0,0,1,.12-2.32h8a14.7,14.7,0,0,0,1.33,7.14,12.89,12.89,0,0,0,5.46,5.69,19.77,19.77,0,0,0,10,2.26q8.6,0,13.7-4.3a14.36,14.36,0,0,0,5.11-11.61,11.38,11.38,0,0,0-2.38-7.37,19.44,19.44,0,0,0-5.86-4.87,92.49,92.49,0,0,0-9.52-4.36,89.88,89.88,0,0,1-11.27-5.17,19.84,19.84,0,0,1-6.9-6.56q-2.73-4.17-2.27-10.68a19.44,19.44,0,0,1,3.78-11.08,23.59,23.59,0,0,1,9.63-7.55,33.64,33.64,0,0,1,13.88-2.73,30.51,30.51,0,0,1,13.17,2.61,18.54,18.54,0,0,1,8.25,7.14,16.84,16.84,0,0,1,2.38,10h-8.48a10.81,10.81,0,0,0-1.45-6.16,12.54,12.54,0,0,0-5.34-4.93,19.2,19.2,0,0,0-9-1.92q-8.24,0-13.47,4A13,13,0,0,0,305,287.68a10.33,10.33,0,0,0,2.32,6.85,19.94,19.94,0,0,0,5.69,4.64,94.43,94.43,0,0,0,9.29,4.3,92.28,92.28,0,0,1,11.09,5.22,23.09,23.09,0,0,1,7.19,6.5,19.59,19.59,0,0,1,2.85,12.54,21.11,21.11,0,0,1-3.95,10.8,23.41,23.41,0,0,1-9.58,7.66A33.85,33.85,0,0,1,315.69,349,31.44,31.44,0,0,1,302.86,346.54Z" transform="translate(-23 -136.33)"/><path class="cls-1" d="M364.4,299.23a36.64,36.64,0,0,1,12.94-11.38,35.3,35.3,0,0,1,16.6-4q11.73,0,18.29,5.81t7,15.79h-8.7a14.21,14.21,0,0,0-5.05-10.74q-4.71-3.88-12.72-3.89a25.32,25.32,0,0,0-17.36,6.68q-7.49,6.67-9.69,19a33.69,33.69,0,0,0-.58,6.62q0,9.29,5.05,14.22t13.41,4.93a25.55,25.55,0,0,0,14.17-3.89,23.11,23.11,0,0,0,8.93-10.85h8.71a33.94,33.94,0,0,1-12.65,15.67,35.26,35.26,0,0,1-20.32,5.92q-11.73,0-18.75-6.73t-7-18.46a41.86,41.86,0,0,1,.69-7.43A41.4,41.4,0,0,1,364.4,299.23Z" transform="translate(-23 -136.33)"/><path class="cls-1" d="M453.74,287.21a27.75,27.75,0,0,1,14.28-3.6l-1.51,8.48h-2.32a24.19,24.19,0,0,0-14.4,4.29q-6,4.31-8.36,14.17l-6.62,37.62h-8.13l11.15-63.4H446l-2.21,12.66A27.55,27.55,0,0,1,453.74,287.21Z" transform="translate(-23 -136.33)"/><path class="cls-1" d="M488,284.77l-11.15,63.4h-8.13l11.15-63.4Zm-5.46-13.29a4.67,4.67,0,0,1-1.39-3.54,6.76,6.76,0,0,1,2.08-5.05,6.91,6.91,0,0,1,5-2,4.91,4.91,0,0,1,3.54,1.27,4.47,4.47,0,0,1,1.33,3.37,7.12,7.12,0,0,1-2.09,5.17,6.57,6.57,0,0,1-4.87,2.14A5,5,0,0,1,482.53,271.48Z" transform="translate(-23 -136.33)"/><path class="cls-1" d="M523.45,288.08a32.24,32.24,0,0,1,16.32-4.24q11.49,0,18.4,6.8t6.91,18.52a40.69,40.69,0,0,1-.7,7.19,42.38,42.38,0,0,1-7,17.19A36.73,36.73,0,0,1,544.58,345a34.06,34.06,0,0,1-16.31,4.06q-8.94,0-14.74-4.23a20.41,20.41,0,0,1-7.78-10.63l-7.66,43.89H490l16.49-93.35h8.12l-2.44,13.94A31.41,31.41,0,0,1,523.45,288.08Zm33.27,22.35q0-9.17-5.4-14.34t-14.22-5.16a26.21,26.21,0,0,0-12.43,3.13,29.33,29.33,0,0,0-10.1,8.94,35.08,35.08,0,0,0-6.15,19.27q0,9.06,5.46,14.4T528,342a26.73,26.73,0,0,0,12.6-3.07,28.28,28.28,0,0,0,10-8.94,33.73,33.73,0,0,0,5.52-13.65A37.68,37.68,0,0,0,556.72,310.43Z" transform="translate(-23 -136.33)"/><path class="cls-1" d="M587.14,331a21.66,21.66,0,0,0-.35,3.6c0,2.48.67,4.2,2,5.17s3.58,1.45,6.68,1.45h7.43l-1.28,7h-8.71q-7.2,0-10.8-2.79t-3.6-9.17A30.52,30.52,0,0,1,579,331l7-39.36h-8.82l1.28-6.85h8.82l2.79-15.9h8.13l-2.79,15.9h17.53l-1.28,6.85H594.1Z" transform="translate(-23 -136.33)"/><path class="cls-1" d="M562.94,775.85q-4.56,0-7-1.76a5.55,5.55,0,0,1-2.46-4.74,4.78,4.78,0,0,1,1.81-4A6.74,6.74,0,0,1,559.5,764a8.43,8.43,0,0,1,4.27,1.07,10.25,10.25,0,0,1,3.44,3.67l1.67,2.88a1.4,1.4,0,0,0,1.16.65c.46,0,.79-.28,1-.84a26.45,26.45,0,0,0,.79-5.43q.23-3.57.23-8.69,0-5.85-.28-15t-.56-22.67q0-4-3-5l-2.14-.75v-.93h24.34v.93l-2,.75a4.18,4.18,0,0,0-2.27,1.72,6.19,6.19,0,0,0-.6,3v18.39a110.75,110.75,0,0,1-.84,15.05A41.34,41.34,0,0,1,582,763a18.51,18.51,0,0,1-7.57,9.52A21.15,21.15,0,0,1,562.94,775.85Z" transform="translate(-23 -136.33)"/><path class="cls-1" d="M604.27,775.57a13.68,13.68,0,0,1-9.06-3.06q-3.68-3.07-3.67-8.83,0-4.36,4.46-8t14-5.53c1-.18,2.1-.39,3.34-.6l3.9-.7v-7.34c0-4.21-.51-7.16-1.53-8.87a5.19,5.19,0,0,0-4.79-2.55,4.5,4.5,0,0,0-3.52,1.44q-1.3,1.44-1.68,5l-.18,1q-.2,4-2,5.85a5.78,5.78,0,0,1-4.37,1.86,5.59,5.59,0,0,1-4-1.49,5.19,5.19,0,0,1-1.58-4,8.61,8.61,0,0,1,2.65-6.41,16.56,16.56,0,0,1,7-3.9,33,33,0,0,1,9.47-1.3q8.27,0,12.77,4t4.51,13.14v20.53q0,4.18,3.9,4.18h2l.84.74a13.72,13.72,0,0,1-3.86,3.44,11.92,11.92,0,0,1-5.89,1.21,10,10,0,0,1-6.46-1.91,8.85,8.85,0,0,1-3.11-5.06,38.76,38.76,0,0,1-5.71,5.06A12.76,12.76,0,0,1,604.27,775.57Zm5.66-5.66a7.22,7.22,0,0,0,3.49-.89,24.09,24.09,0,0,0,3.85-2.74v-15.6l-1.86.37c-.62.12-1.33.25-2.13.37a14.31,14.31,0,0,0-6.83,3.76,9.83,9.83,0,0,0-2.55,7.11c0,2.54.58,4.44,1.76,5.71A5.62,5.62,0,0,0,609.93,769.91Z" transform="translate(-23 -136.33)"/><path class="cls-1" d="M657.77,774.46,641.33,735a7,7,0,0,0-4.46-4.18l-1.3-.37v-.93h24.06v.93l-1.68.37q-3.62.93-2.23,4.83l9.76,25.92,9.1-25.73a4.72,4.72,0,0,0,.37-3.07,3,3,0,0,0-2.23-1.76l-2.32-.56v-.93h13.47v.93l-2.7.65a6.31,6.31,0,0,0-2.74,1.39,7,7,0,0,0-1.62,2.79l-13.65,39.2Z" transform="translate(-23 -136.33)"/><path class="cls-1" d="M697.62,775.57a13.65,13.65,0,0,1-9.06-3.06q-3.67-3.07-3.67-8.83,0-4.36,4.46-8t14-5.53c1-.18,2.11-.39,3.35-.6l3.9-.7v-7.34c0-4.21-.51-7.16-1.53-8.87a5.2,5.2,0,0,0-4.79-2.55,4.53,4.53,0,0,0-3.53,1.44q-1.29,1.44-1.67,5l-.18,1q-.2,4-1.95,5.85a5.8,5.8,0,0,1-4.37,1.86,5.59,5.59,0,0,1-4-1.49,5.19,5.19,0,0,1-1.58-4,8.64,8.64,0,0,1,2.64-6.41,16.67,16.67,0,0,1,7-3.9,32.9,32.9,0,0,1,9.47-1.3q8.26,0,12.77,4t4.51,13.14v20.53q0,4.18,3.9,4.18h2l.84.74a13.72,13.72,0,0,1-3.86,3.44,11.94,11.94,0,0,1-5.9,1.21,10,10,0,0,1-6.45-1.91,8.85,8.85,0,0,1-3.11-5.06,38.76,38.76,0,0,1-5.71,5.06A12.78,12.78,0,0,1,697.62,775.57Zm5.66-5.66a7.15,7.15,0,0,0,3.48-.89,24.11,24.11,0,0,0,3.86-2.74v-15.6l-1.86.37c-.62.12-1.33.25-2.13.37a14.31,14.31,0,0,0-6.83,3.76,9.8,9.8,0,0,0-2.56,7.11q0,3.81,1.77,5.71A5.6,5.6,0,0,0,703.28,769.91Z" transform="translate(-23 -136.33)"/><path class="cls-1" d="M752.32,775.85a45.37,45.37,0,0,1-10.4-1.25,32.82,32.82,0,0,1-8.82-3.3l.46-12.63h.93l2.88,6a29.8,29.8,0,0,0,2.78,4.6,9.75,9.75,0,0,0,4.09,3.11,13.86,13.86,0,0,0,3.58,1.26,21.39,21.39,0,0,0,3.85.32q5.67,0,9-3.06a10.31,10.31,0,0,0,3.3-7.9,10.42,10.42,0,0,0-2.23-7.1,22.65,22.65,0,0,0-7.15-5l-3.81-1.67a40.07,40.07,0,0,1-12.49-8.13q-4.5-4.6-4.5-12.21a15.94,15.94,0,0,1,2.83-9.48,18,18,0,0,1,7.89-6.13,30.42,30.42,0,0,1,11.85-2.14,33.07,33.07,0,0,1,9.33,1.3,27.18,27.18,0,0,1,7.66,3.53l-.55,11.15h-.93l-3.81-7a14.41,14.41,0,0,0-3.16-4.6,9.33,9.33,0,0,0-3.62-1.9,14.86,14.86,0,0,0-2.23-.51,20.38,20.38,0,0,0-2.6-.14,12,12,0,0,0-8,2.74,9.16,9.16,0,0,0-3.25,7.39,11,11,0,0,0,2.51,7.57,22.12,22.12,0,0,0,7.34,5.06l4.27,1.85q8.91,3.92,12.82,8.32t3.9,11.38a16.53,16.53,0,0,1-6.18,13.32Q763.65,775.85,752.32,775.85Z" transform="translate(-23 -136.33)"/><path class="cls-1" d="M803.59,775.57a24,24,0,0,1-11.47-2.74,20.25,20.25,0,0,1-8.17-8,25.31,25.31,0,0,1-3-12.86,24,24,0,0,1,3.3-12.87,22,22,0,0,1,8.82-8.17,26.13,26.13,0,0,1,12.12-2.83,21.19,21.19,0,0,1,9.1,1.76,13.94,13.94,0,0,1,5.67,4.6,10.27,10.27,0,0,1,1.95,5.9,5.21,5.21,0,0,1-1.58,4,5.82,5.82,0,0,1-4.09,1.44,5.47,5.47,0,0,1-4.36-2,8.74,8.74,0,0,1-2-5.11,21.11,21.11,0,0,1,.09-3.48,12,12,0,0,0,0-2.93,3.32,3.32,0,0,0-1.16-2.09,4,4,0,0,0-2.18-.51,9.83,9.83,0,0,0-8.78,4.92q-3.12,4.93-3.11,15.7,0,9.38,3.48,14.35t10.73,5a13.9,13.9,0,0,0,7.06-1.58,19.17,19.17,0,0,0,5.2-4.74l.93.75A17.79,17.79,0,0,1,815,772.6,21.39,21.39,0,0,1,803.59,775.57Z" transform="translate(-23 -136.33)"/><path class="cls-1" d="M826.44,774.18v-.93l1.39-.37a4.32,4.32,0,0,0,2.56-1.68,5.37,5.37,0,0,0,.69-2.87V739.25a5.25,5.25,0,0,0-.69-3,4,4,0,0,0-2.56-1.35l-1.39-.37v-.93l16-5.39.92.93.84,8v.74a19.64,19.64,0,0,1,3.39-4.78,18.91,18.91,0,0,1,4.64-3.58,10.54,10.54,0,0,1,5.07-1.39,7.07,7.07,0,0,1,5.38,1.95,6.84,6.84,0,0,1,1.86,4.92,6.4,6.4,0,0,1-1.81,4.88,6.05,6.05,0,0,1-4.32,1.72q-3.9,0-6.87-3.91l-.19-.18a3.07,3.07,0,0,0-2.13-1.44,2.48,2.48,0,0,0-2.23,1.16,7.12,7.12,0,0,0-1.54,2,25.9,25.9,0,0,0-1.16,2.64v25.92c0,2.48,1.09,4,3.25,4.64l3,.84v.93Z" transform="translate(-23 -136.33)"/><path class="cls-1" d="M867.59,774.18v-.93l1.3-.37a4.29,4.29,0,0,0,2.55-1.68,5.58,5.58,0,0,0,.7-3V739.16a5,5,0,0,0-.7-2.92,4,4,0,0,0-2.55-1.35l-1.3-.28v-.93l17-5.48.93.93-.28,13.19v26a5.63,5.63,0,0,0,.7,3,4.24,4.24,0,0,0,2.46,1.67l.93.28v.93Zm11-50.9a7.61,7.61,0,0,1-5.34-2,7,7,0,0,1,0-10.17,7.71,7.71,0,0,1,5.34-2,7.57,7.57,0,0,1,5.29,2,7.11,7.11,0,0,1,0,10.17A7.47,7.47,0,0,1,878.55,723.28Z" transform="translate(-23 -136.33)"/><path class="cls-1" d="M893,795.54v-.93l1.11-.37a4.22,4.22,0,0,0,3.44-4.46V739.25a5.49,5.49,0,0,0-.7-3.06,3.82,3.82,0,0,0-2.55-1.39l-1.3-.28v-.93l15.79-5.39.92.93.84,2.88a26.33,26.33,0,0,1,6.83-2.88,29.43,29.43,0,0,1,7.75-1,15.18,15.18,0,0,1,12.68,6.08q4.7,6.09,4.69,17.42,0,11.14-5.15,17.55t-14.54,6.41a31.42,31.42,0,0,1-12.35-2.14V789.5q0,3.72,3.34,4.65l1.77.46v.93Zm25.35-22.66q4.65,0,7.39-4.83T928.52,752q0-11.24-2.6-15.74a8.24,8.24,0,0,0-7.53-4.51,16.35,16.35,0,0,0-7.61,2.23v37.43A19.41,19.41,0,0,0,918.39,772.88Z" transform="translate(-23 -136.33)"/><path class="cls-1" d="M964,775.57q-6,0-9.25-3t-3.29-9.47V731.36h-6.41v-.93l2.23-.37a17.5,17.5,0,0,0,5-1.86,20.12,20.12,0,0,0,4.13-3.25L964,716.5h.93l-.28,13h10.4v1.86h-10.5V764.8a7.33,7.33,0,0,0,1.44,4.92,4.65,4.65,0,0,0,3.67,1.67,6.13,6.13,0,0,0,3.44-1,15.4,15.4,0,0,0,3-2.65l.93.93a13.73,13.73,0,0,1-5.11,5A15.67,15.67,0,0,1,964,775.57Z" transform="translate(-23 -136.33)"/><path class="cls-1" d="M107.14,719.14c3,4.87,5.92,15.5,5.92,27,0,7.84-1.92,17.94-9.23,17.94-21.59,0-20.38-38.14-38-38.14-4.18,0-15.15,3.66-16,19v54.34c0,22.46,13.24,42.84,31.7,42.84,9,0,29.08-13.06,29.08-45.46H112v48.24H81.71c-32,0-56.24-20.9-56.24-52.07v-50c0-10.27,4-27.16,23.16-27.16,24-.18,29.95,23.85,46.84,23.85,8,0,13.06-11.49,10.62-20Z" transform="translate(-23 -136.33)"/><path class="cls-1" d="M162,713l-14.28,9.58c-5.92,4.88-6.1,10.45-6.1,14.46,0,35.7,85.33,47,85.33,83.06,0,26.82-48.06,42.32-69.65,42.32-26.47,0-52.59-26.12-32.74-50.33l36.92-19.5L162.7,794c-13.94,6.62-20,15.5-20,27.52,0,33.08,65.83,44.93,65.83,12.36,0-44.75-83.94-37.09-83.94-85.16,0-15.67,26.82-29.77,38.14-37.26,16.19,35.87,41.62,38.13,46.49,6.61h1.22l-6.79,45.28c-14.28,0-30.3-2.26-38.66-14.45C159.21,740.38,156.25,725.76,162,713Z" transform="translate(-23 -136.33)"/><path class="cls-1" d="M272.93,713l-14.28,9.58c-5.92,4.88-6.09,10.45-6.09,14.46,0,35.7,85.33,47,85.33,83.06,0,26.82-48.06,42.32-69.66,42.32-26.47,0-52.59-26.12-32.74-50.33l36.92-19.5,1.22,1.39c-13.93,6.62-20,15.5-20,27.52,0,33.08,65.83,44.93,65.83,12.36,0-44.75-83.94-37.09-83.94-85.16,0-15.67,26.82-29.77,38.14-37.26,16.2,35.87,41.62,38.13,46.5,6.61h1.22l-6.8,45.28c-14.28,0-30.3-2.26-38.66-14.45C270.15,740.38,267.19,725.76,272.93,713Z" transform="translate(-23 -136.33)"/><path class="cls-1" d="M108,463H24.76V447.65H57V413.59H24.76v-15.4H108v15.4H73.53v34.06H108Z" transform="translate(-23 -136.33)"/><path class="cls-1" d="M91.48,529.52V507.39H24.76V492H91.48V469.77H108v59.75Z" transform="translate(-23 -136.33)"/><path class="cls-1" d="M108,536.26v30.3l-78.54,9.91v3.85L108,590.23v30.31H24.76V605.15H91.48L103.29,608v-3.84L24.76,593.31V563.49l78.53-10.88v-3.85l-11.81,2.89H24.76V536.26Z" transform="translate(-23 -136.33)"/><path class="cls-1" d="M33.5,630.16H108v15.39H40.11l1.18,33H24.76l-1.18-40.13C23.46,633.14,27,630.16,33.5,630.16Z" transform="translate(-23 -136.33)"/><path class="cls-1" d="M972.22,681.14H930.55V666.28c0-8.82,4.58-14.34,12.59-14.34,6.27,0,11,4.12,12.07,10.68l17-11.78v5.22l-16.48,11.21v9.51h16.48Zm-20.14-4.36V666.63c0-6.39-3.14-10.33-8.94-10.33s-8.94,3.94-8.94,10.33v10.15Z" transform="translate(-23 -136.33)"/><path class="cls-1" d="M972.22,619.14v25H930.55V619.55h3.77V639.8h14.51V621.29h3.77V639.8h15.85V619.14Z" transform="translate(-23 -136.33)"/><path class="cls-1" d="M960.67,586.05V605.5l11.55,4.41v4.29L930.55,598v-4.76l41.67-16.13v4.58Zm-3.54,18.11V587.45l-21.94,8.3Z" transform="translate(-23 -136.33)"/><path class="cls-1" d="M951.32,576c-12.24,0-21.64-8.76-21.64-20.37a19.56,19.56,0,0,1,16.6-19.74v4.59a15.19,15.19,0,0,0-12.72,15.15c0,9.23,7.55,15.9,17.76,15.9s17.88-6.67,17.88-15.9a15.15,15.15,0,0,0-12.77-15.15v-4.59a19.61,19.61,0,0,1,16.66,19.74C973.09,567.19,963.63,576,951.32,576Z" transform="translate(-23 -136.33)"/><path class="cls-1" d="M972.22,520.22H934.44v14h-3.89V501.94h3.89v14h37.78Z" transform="translate(-23 -136.33)"/><path class="cls-1" d="M381.76,745.39c0-20.13,14.25-35.51,34-35.51,17.76,0,29.34,11.11,33.24,24.78h-8.08c-2.94-10.35-11.58-18.42-25.35-18.42-15.67,0-26.5,12.06-26.5,29.25,0,16.8,10.93,29.24,27.35,29.24,14.82,0,24.22-9.21,26-23.55H415.66v-5.79h34.19c-.19,21.56-13.48,35.52-33.62,35.52C396.67,780.91,381.76,765.9,381.76,745.39Z" transform="translate(-23 -136.33)"/><path class="cls-1" d="M464.09,722.88a5,5,0,0,1-5.31-5c0-2.85,2.18-4.94,5.31-4.94s5.42,2.09,5.42,4.94S467.32,722.88,464.09,722.88Zm-3.23,56.6v-50h6.65v50Z" transform="translate(-23 -136.33)"/><path class="cls-1" d="M507.68,779a18.17,18.17,0,0,1-7.22,1.42c-8.26,0-14.62-4.27-14.62-15.1V735H474.06v-5.6h11.78V714.62h6.65v14.82h15.66V735H492.49v28.87c0,7.78,3.79,10.44,9.3,10.44a14.65,14.65,0,0,0,5.89-1.23Z" transform="translate(-23 -136.33)"/><path class="cls-1" d="M426.54,863V812.52h11.9c4.11,0,7.32.57,9.62,1.69a9.75,9.75,0,0,1,4.92,5.17,22.88,22.88,0,0,1,1.47,8.84v18.44a24.55,24.55,0,0,1-1.47,9.13,10.14,10.14,0,0,1-4.86,5.42q-3.39,1.77-9.31,1.77Zm9.22-6.41h2.8a7.3,7.3,0,0,0,4.55-1.12,5,5,0,0,0,1.68-3.27,37.33,37.33,0,0,0,.31-5.27V827.6a22.56,22.56,0,0,0-.43-4.92,4.21,4.21,0,0,0-1.81-2.74,8.54,8.54,0,0,0-4.42-.87h-2.68Z" transform="translate(-23 -136.33)"/><path class="cls-1" d="M474.94,863.67a15.91,15.91,0,0,1-8.53-2,11,11,0,0,1-4.55-5.74,25.77,25.77,0,0,1-1.37-8.84V828.22a25,25,0,0,1,1.37-8.75,10.73,10.73,0,0,1,4.55-5.58,16.4,16.4,0,0,1,8.53-1.93c3.66,0,6.53.65,8.63,1.93a11,11,0,0,1,4.55,5.58,24.51,24.51,0,0,1,1.4,8.75v18.94a24.78,24.78,0,0,1-1.4,8.75,11.4,11.4,0,0,1-4.55,5.74C481.47,863,478.6,863.67,474.94,863.67Zm0-6.79a4.9,4.9,0,0,0,3.4-1,5.05,5.05,0,0,0,1.46-2.74,18.06,18.06,0,0,0,.38-3.8V826.11a17.61,17.61,0,0,0-.38-3.81,4.82,4.82,0,0,0-1.46-2.64,5,5,0,0,0-3.4-1,4.91,4.91,0,0,0-3.3,1,4.62,4.62,0,0,0-1.49,2.64,17.61,17.61,0,0,0-.38,3.81v23.23a20.42,20.42,0,0,0,.34,3.8,4.76,4.76,0,0,0,1.47,2.74A4.91,4.91,0,0,0,474.94,856.88Z" transform="translate(-23 -136.33)"/><path class="cls-1" d="M509.89,863.67c-3.7,0-6.59-.73-8.69-2.18a11.35,11.35,0,0,1-4.39-6,27.68,27.68,0,0,1-1.25-8.69v-18a28.86,28.86,0,0,1,1.25-9A10.72,10.72,0,0,1,501.2,814c2.1-1.37,5-2.06,8.69-2.06a16,16,0,0,1,8.19,1.78,9.78,9.78,0,0,1,4.21,5.08,21.63,21.63,0,0,1,1.24,7.66v4.23h-8.84v-4.36a32.44,32.44,0,0,0-.22-3.86,4.8,4.8,0,0,0-1.19-2.77,4.41,4.41,0,0,0-3.33-1,4.77,4.77,0,0,0-3.46,1.09,5.35,5.35,0,0,0-1.4,2.93,24.76,24.76,0,0,0-.31,4.14v21.93a19.47,19.47,0,0,0,.44,4.52,4.68,4.68,0,0,0,1.59,2.68,5,5,0,0,0,3.14.9,4.17,4.17,0,0,0,3.27-1.09,5.35,5.35,0,0,0,1.22-2.9,30.75,30.75,0,0,0,.25-4V844.3h8.84v4.05a24.47,24.47,0,0,1-1.18,7.94,10.36,10.36,0,0,1-4.14,5.42Q515.24,863.68,509.89,863.67Z" transform="translate(-23 -136.33)"/><path class="cls-1" d="M530,863V812.52h9.22V834.7l10-22.18h8.78l-9.65,22.56L558.92,863h-9.16l-8.47-23-2.12,3.86V863Z" transform="translate(-23 -136.33)"/><path class="cls-1" d="M563.09,863V812.52h21.18V819h-12v14.52h9.41v6.42h-9.41v16.69H584.4V863Z" transform="translate(-23 -136.33)"/><path class="cls-1" d="M589.75,863V812.52h12.09a26.69,26.69,0,0,1,8.63,1.22,9.91,9.91,0,0,1,5.35,4.14,14.87,14.87,0,0,1,1.84,8,24.12,24.12,0,0,1-.56,5.48,10.39,10.39,0,0,1-1.9,4.14,8.55,8.55,0,0,1-3.71,2.65l7,24.85h-9.22l-6.1-23.11H599V863Zm9.22-28.9h2.87a9.81,9.81,0,0,0,4.27-.78,4.59,4.59,0,0,0,2.27-2.49,11.89,11.89,0,0,0,.69-4.39,9.5,9.5,0,0,0-1.41-5.7c-.93-1.27-2.71-1.9-5.32-1.9H599Z" transform="translate(-23 -136.33)"/><path class="cls-1" d="M709.61,852.64H689.74L684.14,863h-4.61L703,820h4.92l8.22,43h-4.6Zm-.68-3.48-4.42-23.74-12.9,23.74Z" transform="translate(-23 -136.33)"/><path class="cls-1" d="M759.08,863h-4.36l-17.63-36.63L730.61,863h-4.36l7.66-43.54h4.36L756,856l6.42-36.57h4.36Z" transform="translate(-23 -136.33)"/><path class="cls-1" d="M778.83,829.69a26.46,26.46,0,0,1,9.15-7.91,24.43,24.43,0,0,1,11.46-2.84A18.61,18.61,0,0,1,811,822.43a15.75,15.75,0,0,1,5.92,9.72h-5.11a11.66,11.66,0,0,0-4.54-6.76,14.4,14.4,0,0,0-8.6-2.46,19.39,19.39,0,0,0-9.13,2.24,20.31,20.31,0,0,0-7.19,6.39,23.79,23.79,0,0,0-3.93,9.62,23.51,23.51,0,0,0-.37,4.11,15.43,15.43,0,0,0,1.77,7.57,12.13,12.13,0,0,0,5,4.92,15.48,15.48,0,0,0,7.44,1.72,19,19,0,0,0,8.53-2,19.49,19.49,0,0,0,6.86-5.63,22.3,22.3,0,0,0,4.05-8.54H793.4l.63-3.49H817l-.56,3.18a26.9,26.9,0,0,1-5,10.37,26.28,26.28,0,0,1-8.79,7.32,23.58,23.58,0,0,1-11,2.68,19.53,19.53,0,0,1-9.44-2.21A15.82,15.82,0,0,1,775.8,855a18.64,18.64,0,0,1-2.27-9.31,28.64,28.64,0,0,1,.44-4.49A26.68,26.68,0,0,1,778.83,829.69Z" transform="translate(-23 -136.33)"/><path class="cls-1" d="M835.83,819.44,831,846.79a19,19,0,0,0-.38,3.61q0,4.68,2.56,6.88a10.47,10.47,0,0,0,7.1,2.22,13,13,0,0,0,8.88-3.12q3.57-3.12,4.76-9.59l4.86-27.35h4.36l-4.86,27.35q-1.43,8.22-6.57,12.43a18.64,18.64,0,0,1-12.18,4.2q-6,0-9.65-3.11T826.23,851a25.73,25.73,0,0,1,.38-4.23l4.85-27.35Z" transform="translate(-23 -136.33)"/><path class="cls-1" d="M873.2,859.56h15.64l-.62,3.42h-20l7.66-43.54h4.36Z" transform="translate(-23 -136.33)"/><path class="cls-1" d="M924.66,852.64H904.79L899.18,863h-4.61l23.49-43H923l8.22,43h-4.61Zm-.69-3.48-4.42-23.74-12.89,23.74Z" transform="translate(-23 -136.33)"/><path class="cls-1" d="M971.72,822.18a9.18,9.18,0,0,1,3.21,7.35,19.73,19.73,0,0,1-.25,2.56,14.71,14.71,0,0,1-4.11,8.06,15.94,15.94,0,0,1-8.78,4.33L969.7,863h-5.23l-7.54-18.19h-8.1L945.65,863h-4.36L949,819.44H962.1Q968.52,819.44,971.72,822.18Zm-1.4,7.66a6.26,6.26,0,0,0-2.18-5.11q-2.17-1.8-6.72-1.8h-8.73l-3.24,18.38h8.79q5.16,0,8.16-2.5a10.91,10.91,0,0,0,3.74-6.72A15.86,15.86,0,0,0,970.32,829.84Z" transform="translate(-23 -136.33)"/><path class="cls-1" d="M972,479.42l-49.84-5.51v-8.6L972,459.8v4.89L958.08,466v7.29L972,474.53Zm-18.29-6.63V466.4l-10.87,1-16.38,1.3v1.75l16.38,1.31Z" transform="translate(-23 -136.33)"/><path class="cls-1" d="M972.48,444.13c0,3.09-.69,5.31-2.05,6.65s-3.6,2.08-6.74,2.23h-3.33q-1.53,0-3.09,0l-3.39-.11V448.3c1.81.09,3.6.13,5.39.14s3.51,0,5.17-.14a4.54,4.54,0,0,0,3-1.07,4.18,4.18,0,0,0,.95-3,4,4,0,0,0-.95-3,4.76,4.76,0,0,0-3-1c-1.1-.06-2.09-.1-3-.12s-1.79,0-2.72,0l-3.24.1a11.1,11.1,0,0,0-3.69.67,3.28,3.28,0,0,0-2,2.35l-.87,3.49a8.53,8.53,0,0,1-1.89,3.85,6.75,6.75,0,0,1-3.27,1.89,23.49,23.49,0,0,1-4.9.65c-1.29,0-2.68,0-4.16,0l-4.35-.06a12.58,12.58,0,0,1-5-1,5.56,5.56,0,0,1-2.79-2.82,12.31,12.31,0,0,1-.89-5.08q0-4.45,2-6.43t6.69-2.17c1.12,0,2.49,0,4.12,0s3.33.06,5.1.1v4.61c-1.67-.07-3.33-.1-5-.11s-3.33,0-5,.08a4.16,4.16,0,0,0-3,1,5.09,5.09,0,0,0,0,5.92,4.6,4.6,0,0,0,3,1c1.51.1,3,.15,4.58.14s3.08-.06,4.64-.14a11.38,11.38,0,0,0,3.94-.68,3.22,3.22,0,0,0,1.76-2.47l.78-3.2a8.53,8.53,0,0,1,1.91-4,7,7,0,0,1,3.32-1.93,20.31,20.31,0,0,1,4.89-.62c1.16-.05,2.16-.07,3-.07s1.65,0,2.44,0l2.74.06q4.71.18,6.74,2.19C971.79,438.94,972.48,441.12,972.48,444.13Z" transform="translate(-23 -136.33)"/><path class="cls-1" d="M972,423.11H926.47v6.57h-4.3V411.74h4.3v6.57H972Z" transform="translate(-23 -136.33)"/><path class="cls-1" d="M972,405.13H922.17v-8.19c0-3,.67-5.23,2-6.6s3.52-2.12,6.58-2.25c1.78-.08,3.45-.13,5-.14h4.5c1.45,0,2.93.06,4.42.14a11.78,11.78,0,0,1,5.06,1.11,5.71,5.71,0,0,1,2.73,3.1L972,387.16v5.11l-18.75,4.61v3.46H972Zm-23.08-4.79V397a4.14,4.14,0,0,0-1-3.05,4.56,4.56,0,0,0-3.07-1.06c-1.56-.06-3.14-.1-4.75-.12s-3.23,0-4.85,0-3.2.06-4.76.12a4.54,4.54,0,0,0-3.07,1.05,4,4,0,0,0-1,3v3.4Z" transform="translate(-23 -136.33)"/><path class="cls-1" d="M972.48,370.72q0,4.66-2,6.71t-6.65,2.13q-4.27.09-8.43.14t-8.29.05q-4.12,0-8.28-.05t-8.46-.14q-4.64-.09-6.65-2.13t-2-6.71q0-4.65,2-6.69t6.65-2.13l8.49-.11q4.15,0,8.27-.05t8.27.05l8.43.11q4.63.09,6.65,2.13T972.48,370.72Zm-4.08,0a4.37,4.37,0,0,0-.89-3.06,4,4,0,0,0-2.92-1c-3-.09-5.91-.14-8.84-.17s-5.86,0-8.79,0-5.84,0-8.73.06-5.77.1-8.61.16a4,4,0,0,0-3,1,5.62,5.62,0,0,0,0,6.07,4.07,4.07,0,0,0,3,1q4.26.14,8.61.19c2.89,0,5.81.06,8.73.05s5.86,0,8.79-.08,5.88-.09,8.84-.16a4,4,0,0,0,2.92-1A4.34,4.34,0,0,0,968.4,370.72Z" transform="translate(-23 -136.33)"/><path class="cls-1" d="M648.56,304.72a42.2,42.2,0,0,1,2.26-14.28,30,30,0,0,1,6.52-10.79,28.87,28.87,0,0,1,10.3-6.86,36,36,0,0,1,13.49-2.41,36.48,36.48,0,0,1,9.81,1.23,25.05,25.05,0,0,1,7.6,3.43,15.88,15.88,0,0,1,4.91,5.25,13.6,13.6,0,0,1,1.71,6.77,9.83,9.83,0,0,1-2.25,6.82,9,9,0,0,1-11.48.83A23.1,23.1,0,0,1,687.9,291a33.3,33.3,0,0,0-3.29-3.72,6.37,6.37,0,0,0-4.66-1.67q-4.71,0-7.4,4.51t-2.7,12.16a30.79,30.79,0,0,0,.93,7.85,20,20,0,0,0,2.6,6,12.59,12.59,0,0,0,4,3.87,9.83,9.83,0,0,0,5.15,1.37,8.64,8.64,0,0,0,4.81-1.27,3.76,3.76,0,0,0,2-3.24,2.2,2.2,0,0,0-1.18-2.16l-2.64-1.32a8.27,8.27,0,0,1-2.65-2.11,6.7,6.7,0,0,1-1.18-4.41q0-6.87,9.81-6.87h6.87q5.19,0,7.5,1.76t2.31,5.89a9.94,9.94,0,0,1-.49,3.43,22.89,22.89,0,0,1-1.13,2.46,17.52,17.52,0,0,0-1.13,2.55,11.26,11.26,0,0,0-.49,3.72c0,.92,0,2.25.15,4s.14,3.32.14,4.75q0,5.2-1.71,7.46t-5.74,2.26a8.11,8.11,0,0,1-4.42-1,7.44,7.44,0,0,1-2.2-2.16,9,9,0,0,1-1-2.16c-.2-.65-.49-1-.89-1s-.75.34-1.27,1a13.45,13.45,0,0,1-2.31,2.25,16.2,16.2,0,0,1-4,2.26,17.29,17.29,0,0,1-6.52,1,22.9,22.9,0,0,1-10.65-2.5,25.4,25.4,0,0,1-8.38-7,33.56,33.56,0,0,1-5.5-10.75A45.24,45.24,0,0,1,648.56,304.72Z" transform="translate(-23 -136.33)"/><path class="cls-1" d="M716.64,309.33a8.11,8.11,0,0,0-.83-3.88,16.7,16.7,0,0,0-1.87-2.74,23.68,23.68,0,0,1-1.86-2.55,5.86,5.86,0,0,1-.84-3.19,7.34,7.34,0,0,1,4.08-6.92q4.06-2.21,13.09-2.21c3.4,0,5.89.63,7.46,1.87s2.35,3.14,2.35,5.69a27.41,27.41,0,0,1-.73,5.93,36.61,36.61,0,0,0-.74,8v7.45a8.11,8.11,0,0,0,.83,3.88,16.7,16.7,0,0,0,1.87,2.74,24.17,24.17,0,0,1,1.86,2.56,5.8,5.8,0,0,1,.84,3.18c0,3.27-.76,5.61-2.26,7s-4,2-7.56,1.91q-5.58-.19-11.27,0c-3.41.13-5.89-.54-7.46-2s-2.36-3.78-2.36-6.92a5.8,5.8,0,0,1,.84-3.18,22.84,22.84,0,0,1,1.86-2.56,16.7,16.7,0,0,0,1.87-2.74,8.11,8.11,0,0,0,.83-3.88ZM712.81,276a9.31,9.31,0,0,1,3.59-7.6,14.42,14.42,0,0,1,9.36-2.89q5.31,0,8.44,2.5a8.36,8.36,0,0,1,3.14,6.92,9.3,9.3,0,0,1-3.58,7.6,14.45,14.45,0,0,1-9.37,2.89,13.17,13.17,0,0,1-8.44-2.5A8.36,8.36,0,0,1,712.81,276Z" transform="translate(-23 -136.33)"/><path class="cls-1" d="M747.64,301.87a3.15,3.15,0,0,1-2.65-1.52,7.07,7.07,0,0,1-1.08-4.17,6.27,6.27,0,0,1,.74-3.33,7,7,0,0,1,1.71-1.92,15.65,15.65,0,0,1,2-1.27,5.91,5.91,0,0,0,1.72-1.32,12,12,0,0,0,1.77-3.14,21,21,0,0,1,2-3.83,11.48,11.48,0,0,1,3.14-3.19,8.51,8.51,0,0,1,5-1.32,5,5,0,0,1,4.07,1.47,10.17,10.17,0,0,1,1.72,5,11.74,11.74,0,0,0,.54,2.6,4,4,0,0,0,.78,1.38,1.93,1.93,0,0,0,1.13.53,11.33,11.33,0,0,0,1.67.1c2.61,0,4.49.53,5.64,1.57s1.72,2.75,1.72,5.1a7.83,7.83,0,0,1-1.43,5,4.74,4.74,0,0,1-4,1.81h-1.77a5.24,5.24,0,0,0-2.45.44c-.52.3-.75,1.1-.69,2.41l.3,12.45a6.15,6.15,0,0,0,.64,3.19,3.07,3.07,0,0,0,1.62,1.38,5,5,0,0,0,2.15.24c.79-.06,1.57-.1,2.36-.1q5.6,0,5.59,5.4a10.28,10.28,0,0,1-1.13,4.81,10.46,10.46,0,0,1-3.23,3.67,16.9,16.9,0,0,1-5,2.41,21.9,21.9,0,0,1-6.42.88q-7.95,0-12.46-4.22t-4.51-11.57c0-.72,0-1.69.09-2.9s.12-2.53.15-4,.08-2.94.15-4.51.1-3,.1-4.42a17.59,17.59,0,0,0-.3-4.12A1.29,1.29,0,0,0,747.64,301.87Z" transform="translate(-23 -136.33)"/><path class="cls-1" d="M826.7,292.16a8.43,8.43,0,0,0-.78-3.87,21.1,21.1,0,0,0-1.67-2.75c-.59-.82-1.14-1.67-1.67-2.55a6.18,6.18,0,0,1-.78-3.19c0-3.14.78-5.44,2.35-6.92s4.06-2.14,7.46-2q6,.21,12,0,5.29-.19,7.55,1.92t2.25,7a5.41,5.41,0,0,1-.92,3.19c-.63.88-1.3,1.73-2,2.55a19.49,19.49,0,0,0-2,2.75,7.3,7.3,0,0,0-.93,3.87v24.62a7.36,7.36,0,0,0,.93,3.88,19.38,19.38,0,0,0,2,2.74,31.11,31.11,0,0,1,2,2.56,5.37,5.37,0,0,1,.92,3.18q0,4.91-2.25,7t-7.55,1.91q-6-.19-12,0-5.1.19-7.46-2t-2.35-6.92a6.14,6.14,0,0,1,.78-3.18c.53-.89,1.08-1.74,1.67-2.56a21,21,0,0,0,1.67-2.74,8.51,8.51,0,0,0,.78-3.88v-1.47a2.6,2.6,0,0,0-2.94-2.94h-9a2.6,2.6,0,0,0-3,2.94v1.47a8.37,8.37,0,0,0,.79,3.88,21,21,0,0,0,1.67,2.74c.58.82,1.14,1.67,1.66,2.56a6.05,6.05,0,0,1,.79,3.18q0,4.91-2.26,7t-7.55,1.91q-6-.19-12,0-5.1.19-7.46-2c-1.56-1.47-2.35-3.78-2.35-6.92A5.38,5.38,0,0,1,786,326a29,29,0,0,1,2-2.56,19.38,19.38,0,0,0,2-2.74,7.36,7.36,0,0,0,.94-3.88V292.16a7.3,7.3,0,0,0-.94-3.87,19.49,19.49,0,0,0-2-2.75,30.4,30.4,0,0,1-2-2.55,5.41,5.41,0,0,1-.93-3.19c0-3.14.79-5.44,2.35-6.92s4.06-2.14,7.46-2q6,.21,12,0,5.29-.19,7.55,1.92t2.26,7a6.09,6.09,0,0,1-.79,3.19c-.52.88-1.08,1.73-1.66,2.55a21.1,21.1,0,0,0-1.67,2.75,8.3,8.3,0,0,0-.79,3.87v3.53a2.61,2.61,0,0,0,3,2.95h9a2.61,2.61,0,0,0,2.94-2.95Z" transform="translate(-23 -136.33)"/><path class="cls-1" d="M882.52,299.32q0,3.44-.24,7t-.25,7q0,4.62,1,6.57a3.45,3.45,0,0,0,3.29,2,3.94,3.94,0,0,0,3.87-2.75c.75-1.83,1.13-4.91,1.13-9.22v-.49a8,8,0,0,0-.84-3.88,16.06,16.06,0,0,0-1.86-2.74,22.39,22.39,0,0,1-1.86-2.55A5.86,5.86,0,0,1,886,297a7.34,7.34,0,0,1,4.12-6.92q4.13-2.21,13-2.21,9.81,0,9.81,7.56a27.47,27.47,0,0,1-.74,5.93,37.3,37.3,0,0,0-.73,8v4.41a11.14,11.14,0,0,0,.83,5,8.37,8.37,0,0,0,1.87,2.46q1,.89,1.86,1.71a3.9,3.9,0,0,1,.83,2.8,11.48,11.48,0,0,1-1.08,5,12.88,12.88,0,0,1-2.94,4,13.84,13.84,0,0,1-4.36,2.69,14.4,14.4,0,0,1-5.35,1q-4.12,0-6-1.86a10.46,10.46,0,0,1-2.7-4.12,21,21,0,0,1-1-4.12c-.16-1.24-.51-1.86-1-1.86s-.92.63-1.37,1.91a19.83,19.83,0,0,1-2.21,4.17,15.57,15.57,0,0,1-4.46,4.17c-2,1.27-4.71,1.91-8.24,1.91q-7.06,0-10.84-3.92t-3.78-11.28q0-2.26.24-5.94t.25-8.09a8,8,0,0,0-.84-3.88,16.06,16.06,0,0,0-1.86-2.74,22.39,22.39,0,0,1-1.86-2.55,5.86,5.86,0,0,1-.84-3.19,7.29,7.29,0,0,1,4.32-6.92q4.32-2.21,13.34-2.21a13.07,13.07,0,0,1,4,.54,5.16,5.16,0,0,1,2.59,1.87,8.21,8.21,0,0,1,1.38,3.53A32.69,32.69,0,0,1,882.52,299.32Z" transform="translate(-23 -136.33)"/><path class="cls-1" d="M940.89,328.26c-.46,0-.77.52-.93,1.57a16.06,16.06,0,0,1-1,3.48,9.1,9.1,0,0,1-2.65,3.48c-1.25,1-3.14,1.57-5.69,1.57-3.27,0-5.78-.7-7.51-2.1a7.24,7.24,0,0,1-2.6-5.94,26.21,26.21,0,0,1,.74-5.69,36.55,36.55,0,0,0,.74-7.95V292.06a7.92,7.92,0,0,0-.84-3.87,17.41,17.41,0,0,0-1.86-2.75,23.78,23.78,0,0,1-1.87-2.55,5.89,5.89,0,0,1-.83-3.19,7.31,7.31,0,0,1,4.12-6.91q4.11-2.21,13.05-2.21c6.53,0,9.81,2.52,9.81,7.55a27.48,27.48,0,0,1-.74,5.94,37.2,37.2,0,0,0-.73,8v5.5a10.31,10.31,0,0,0,.09,1.71c.07.3.2.44.39.44.53,0,1-.63,1.33-1.91a22.13,22.13,0,0,1,1.72-4.17,13.46,13.46,0,0,1,3.53-4.17,10.18,10.18,0,0,1,6.57-1.91,14.19,14.19,0,0,1,7.11,1.81,16.47,16.47,0,0,1,5.45,5.15,26.16,26.16,0,0,1,3.48,8A40.58,40.58,0,0,1,973,312.86a41.57,41.57,0,0,1-1.23,10.5,26.14,26.14,0,0,1-3.53,8.09,17,17,0,0,1-5.5,5.25,13.82,13.82,0,0,1-7.11,1.86,18.94,18.94,0,0,1-5.88-.78,13,13,0,0,1-3.83-1.92,8.9,8.9,0,0,1-2.26-2.45,16.85,16.85,0,0,1-1.22-2.45c-.3-.75-.54-1.39-.74-1.91S941.21,328.26,940.89,328.26Zm1.18-15.4a18.82,18.82,0,0,0,1.56,8.39q1.57,3.09,4.12,3.09,4.13,0,4.12-8.54a19.18,19.18,0,0,0-1.52-8.39q-1.51-3.09-4.07-3.09Q942.07,304.32,942.07,312.86Z" transform="translate(-23 -136.33)"/><path class="cls-1" d="M412.31,246.62h-12V147.19h-21.5V136.33h55.07v10.86H412.31Z" transform="translate(-23 -136.33)"/><path class="cls-1" d="M501.88,246.62l-8.3-35.46H467.4l-8.29,35.46H446.28l26.63-110.29h14.56l27.16,110.29Zm-10.56-46.55-8.45-37.41c-.35-1.86-.69-3.69-1-5.47s-.63-3.52-.9-5.21-.54-3.33-.8-4.94q-.22,2.42-.6,5t-.9,5.17c-.36,1.73-.73,3.51-1.14,5.32l-8.22,37.56Z" transform="translate(-23 -136.33)"/><path class="cls-1" d="M536.83,246.62V136.33h12V246.62Z" transform="translate(-23 -136.33)"/><path class="cls-1" d="M582.2,246.62V136.33h12v99.35H625v10.94Z" transform="translate(-23 -136.33)"/><path class="cls-1" d="M747.74,136.33,725,246.62H710.7L696.29,174.5c-.15-.95-.34-2.11-.57-3.47s-.45-2.9-.68-4.64-.49-3.67-.79-5.81-.6-4.49-.9-7.05c-.21,1.71-.41,3.43-.61,5.17s-.43,3.48-.68,5.24-.51,3.51-.79,5.24-.59,3.46-.94,5.17l-14.18,72.27H662L639,136.33h12.15l13.88,69.78c.5,2.72,1,5.33,1.43,7.85s.87,4.91,1.24,7.2.71,4.4,1,6.34.5,3.68.65,5.24c.3-2.16.62-4.39,1-6.68s.71-4.57,1.09-6.86.75-4.51,1.13-6.68.74-4.2,1.1-6.11l14.1-70.08h11.32L713,206.26q.6,2.94,1.17,6c.37,2.06.73,4.17,1,6.33s.67,4.43,1,6.79.68,4.83,1,7.39c.41-3.26.85-6.45,1.32-9.54s1-6.08,1.48-9,1-5.62,1.5-8.18l14.11-69.78Z" transform="translate(-23 -136.33)"/><path class="cls-1" d="M770.55,246.62V136.33h12V246.62Z" transform="translate(-23 -136.33)"/><path class="cls-1" d="M880.11,246.62H865.55l-38.48-91.28h-.6c.2,2.67.37,5.24.49,7.73s.21,4.89.27,7.21.07,4.57.07,6.79v69.55H815.91V136.33h14.48l38.55,89.92h.45c-.15-3-.28-5.76-.41-8.37s-.21-5.07-.26-7.36-.08-4.38-.08-6.3V136.33h11.47Z" transform="translate(-23 -136.33)"/><path class="cls-1" d="M973.37,190.12q0,18.63-4.3,31.19t-12.78,18.93q-8.49,6.38-21.16,6.38H913.48V136.33H936q12.3,0,20.6,6.11t12.52,18.11Q973.38,172.53,973.37,190.12Zm-12.52.6q0-14.4-2.79-24.14T949.69,152q-5.58-4.9-14.11-4.91H925.47v88.79h9.2q13.67,0,19.92-11.35T960.85,190.72Z" transform="translate(-23 -136.33)"/><path class="cls-1" d="M140.53,222.62a18.41,18.41,0,0,0-2,3L108,236.87a44.19,44.19,0,0,0-8.15,2L75,244l-6.6.49L66.84,244l-2,.49L59.75,244l-1-.49a20.06,20.06,0,0,1-8.15-2.6,43.28,43.28,0,0,1,2.53-7.09,18.5,18.5,0,0,1,4.57-4.57,33.41,33.41,0,0,1,7.65-3l7.1-3.09H75l-2,6.11,8.64.49,16.79-3,3-2-3-1.54L78.57,216l-13.21-7.59a28.59,28.59,0,0,1-6.6-2l-4.63-5.62a6,6,0,0,1-4.5-5.06,9.56,9.56,0,0,0-2-2l-.49-4.08-.56-3,1.05-13.21,1-1.54a11.43,11.43,0,0,1,3.58-7.1L62.77,155l7.16-3.51A41.82,41.82,0,0,1,79.06,150l6.61-.49,1-2a24.78,24.78,0,0,0,7.16-2A8.59,8.59,0,0,1,98.87,150l3.58,7.1A36.74,36.74,0,0,0,106,162.7l9.69,15.24-2,4.57-21.35,9.62L87.7,186l-3.58-7.09-4.07-5.56a11.56,11.56,0,0,0-5.55-2.53l-1,9.63,3.08,7.1,5.06,5.06L101.9,203.3l15.24,5.62,7.16,3.52a10.32,10.32,0,0,1,5.55,4.07l1.05.55a44,44,0,0,0,5.55,4Z" transform="translate(-23 -136.33)"/><path class="cls-1" d="M208.16,226.44l-3.33,2.78-.56,1.67.56,4.38,2.22,2.78a10.91,10.91,0,0,1-6.05,6,36.09,36.09,0,0,1-10.49,2.23,11.85,11.85,0,0,1-6-6.61,14.72,14.72,0,0,0-4.45-7.16l-11-1.11-10.49-1.11-2.22-.55-6.05.55-1.67,1.11a13.55,13.55,0,0,1-6.6,5.5l-9.94,2.22a17.85,17.85,0,0,1-5.49-7.16,24.13,24.13,0,0,1,3.33-7.72l13.76-23.2a72.36,72.36,0,0,0,3.34-8.21l9.87-27L158,157a12.21,12.21,0,0,1,4.44-7.71,50.22,50.22,0,0,0,10.43-1.67,19.72,19.72,0,0,1,7.72,4.94l2.77,9.38a61.52,61.52,0,0,0,3.34,8.82l2.16,9.94q.36.85,2.77,9.38l7.72,27,5.49,6.6Zm-29.74-9.31a39.7,39.7,0,0,0-2.78-9.38l-2.22-9.94a20.72,20.72,0,0,0-3.83-7.71,52.79,52.79,0,0,0-3.33,8.82,66.22,66.22,0,0,0-3.83,8.27L158,214.9v2.72h16Z" transform="translate(-23 -136.33)"/><path class="cls-1" d="M290.73,222.62a17.79,17.79,0,0,0-2,3l-30.49,11.23a44.58,44.58,0,0,0-8.15,2L225.19,244l-6.6.49-1.54-.49-2,.49L210,244l-1-.49a20,20,0,0,1-8.14-2.6,43.28,43.28,0,0,1,2.53-7.09,18.33,18.33,0,0,1,4.57-4.57,33,33,0,0,1,7.65-3l7.09-3.09h2.53l-2,6.11,8.64.49,16.78-3,3-2-3-1.54L228.77,216l-13.2-7.59a28.81,28.81,0,0,1-6.61-2l-4.62-5.62a6,6,0,0,1-4.51-5.06,9.12,9.12,0,0,0-2-2l-.49-4.08-.55-3,1-13.21,1-1.54a11.48,11.48,0,0,1,3.58-7.1L213,155l7.15-3.51a41.93,41.93,0,0,1,9.14-1.55l6.6-.49,1-2a24.87,24.87,0,0,0,7.16-2,8.62,8.62,0,0,1,5.06,4.56l3.58,7.1a36.7,36.7,0,0,0,3.51,5.62l9.69,15.24-2,4.57-21.36,9.62L237.91,186l-3.58-7.09-4.08-5.56a11.52,11.52,0,0,0-5.55-2.53l-1,9.63,3.09,7.1,5.06,5.06,20.3,10.67,15.24,5.62,7.16,3.52a10.37,10.37,0,0,1,5.56,4.07l1,.55a44.94,44.94,0,0,0,5.56,4Z" transform="translate(-23 -136.33)"/><path class="cls-1" d="M370.65,222.62a18.41,18.41,0,0,0-2,3l-30.48,11.23a44.38,44.38,0,0,0-8.15,2L305.11,244l-6.6.49L297,244l-2,.49-5.06-.49-1-.49a20.06,20.06,0,0,1-8.15-2.6,43.28,43.28,0,0,1,2.53-7.09,18.5,18.5,0,0,1,4.57-4.57,33.41,33.41,0,0,1,7.65-3l7.1-3.09h2.53l-2,6.11,8.64.49,16.79-3,3-2-3-1.54L308.69,216l-13.21-7.59a28.59,28.59,0,0,1-6.6-2l-4.63-5.62a6,6,0,0,1-4.5-5.06,9.56,9.56,0,0,0-2-2l-.49-4.08-.56-3,1-13.21,1-1.54a11.43,11.43,0,0,1,3.58-7.1L292.89,155l7.16-3.51a41.82,41.82,0,0,1,9.13-1.55l6.61-.49,1-2a24.78,24.78,0,0,0,7.16-2A8.59,8.59,0,0,1,329,150l3.58,7.1a36.74,36.74,0,0,0,3.52,5.62l9.69,15.24-2,4.57-21.35,9.62L317.82,186l-3.58-7.09-4.07-5.56a11.56,11.56,0,0,0-5.55-2.53l-1.05,9.63,3.08,7.1,5.06,5.06L332,203.3l15.24,5.62,7.16,3.52a10.32,10.32,0,0,1,5.55,4.07l1,.55a44,44,0,0,0,5.55,4Z" transform="translate(-23 -136.33)"/></svg>