<svg xmlns="http://www.w3.org/2000/svg" viewBox="0 0 3000 3000"><g id="Capa_3" data-name="Capa 3"><path d="M2927.34,1698.15q.93-3.92,1.82-7.85c.37-1.62.72-3.24,1.08-4.86.52-2.34,1-4.69,1.52-7q.54-2.57,1.07-5.14c.48-2.31.94-4.63,1.4-7,.33-1.7.67-3.4,1-5.1.49-2.58,1-5.17,1.43-7.75.26-1.43.53-2.86.79-4.29q1-5.72,1.94-11.47c.29-1.73.55-3.47.82-5.21.36-2.28.72-4.56,1.06-6.85.29-1.92.56-3.84.83-5.75q.46-3.2.89-6.39.41-3,.78-5.92c.28-2.12.54-4.25.79-6.37.24-2,.48-3.92.7-5.88.26-2.25.5-4.52.74-6.78.2-1.83.4-3.65.59-5.49q.57-5.76,1.08-11.54c.16-1.87.3-3.75.45-5.62.18-2.24.37-4.47.53-6.71.15-2,.28-4.06.42-6.08s.28-4.21.4-6.32.24-4.15.35-6.23.21-4.17.3-6.25.19-4.16.27-6.25.15-4.28.22-6.42.14-4.06.19-6.1q.1-4.44.16-8.9c0-1.19.06-2.37.07-3.56,0-3.35.06-6.72.06-10.08,0-4.35,0-8.68-.1-13,0-1.36,0-2.72-.08-4.09q-.07-4.52-.21-9c0-1.53-.09-3.06-.14-4.58q-.15-4.44-.35-8.86c-.06-1.41-.12-2.82-.19-4.22q-.26-5.4-.59-10.79c0-.7-.07-1.4-.12-2.09q-.41-6.51-.91-13c-.07-1-.16-1.92-.23-2.88-.27-3.35-.56-6.71-.87-10-.12-1.3-.24-2.59-.37-3.89q-.45-4.66-.94-9.32c-.14-1.23-.27-2.46-.4-3.7-.4-3.55-.81-7.09-1.25-10.63-.09-.69-.16-1.39-.25-2.08q-1.65-13.07-3.66-26c-.13-.82-.27-1.65-.4-2.48q-.84-5.26-1.73-10.52c-.15-.89-.31-1.77-.46-2.65q-1-5.65-2-11.27c-.09-.45-.17-.91-.26-1.36q-2.49-13.21-5.38-26.28c0-.13-.05-.25-.08-.37q-1.37-6.22-2.84-12.41l-.3-1.29q-1.45-6.11-3-12.19c0-.1-.05-.21-.08-.32s0-.1,0-.16q-3.65-14.4-7.76-28.6l-.57-2c-1.3-4.44-2.62-8.87-4-13.28-.05-.17-.09-.33-.14-.49q-2.13-6.87-4.37-13.69c-.25-.79-.52-1.57-.78-2.35-1.22-3.71-2.48-7.42-3.75-11.12-.34-1-.67-1.93-1-2.9-1.52-4.36-3.06-8.71-4.65-13l-.45-1.19q-2.13-5.8-4.35-11.56l-1.41-3.65q-2-5.14-4.07-10.25c-.35-.86-.69-1.73-1-2.58-1.67-4.1-3.37-8.17-5.09-12.24l-1.51-3.51q-2-4.62-4-9.23c-.55-1.25-1.11-2.5-1.67-3.75-1.8-4-3.61-8-5.47-12-.3-.65-.61-1.29-.92-1.93q-2.41-5.16-4.91-10.27c-.62-1.27-1.24-2.55-1.87-3.82q-2.33-4.74-4.71-9.45l-1.37-2.7q-3-5.88-6.1-11.71c-.54-1-1.1-2.07-1.66-3.1q-2.46-4.6-5-9.19c-.59-1.07-1.18-2.15-1.78-3.22q-3.27-5.9-6.62-11.74l-.08-.12-.21-.37q-4.05-7-8.22-14c-.46-.75-.9-1.51-1.36-2.26q-4.08-6.75-8.29-13.42c-.59-1-1.19-1.9-1.79-2.84q-4.24-6.68-8.58-13.27c-.43-.66-.87-1.31-1.31-2q-4.14-6.25-8.38-12.42c-.44-.62-.86-1.26-1.3-1.89q-4.49-6.48-9.09-12.87c-.66-.93-1.32-1.85-2-2.77q-4.59-6.33-9.28-12.59c-.56-.75-1.13-1.49-1.7-2.24q-4.8-6.36-9.7-12.63l-.4-.51q-5.1-6.48-10.31-12.85l-1.69-2.07q-5.1-6.23-10.32-12.36l-1.6-1.86q-11.14-13-22.79-25.63l-.71-.78q-5.85-6.3-11.8-12.48l-1-1a895.43,895.43,0,0,0-113.27-99.11h0q-3.83-2.82-7.7-5.61l-.46-.33q-3.74-2.68-7.5-5.33l-.68-.48q-3.72-2.61-7.47-5.19l-.66-.45q-3.79-2.61-7.63-5.18l-.35-.23q-24.1-16.15-49.29-30.75l-.79-.47q-3.51-2-7-4l-1.91-1.08c-2.18-1.23-4.37-2.44-6.56-3.65l-2.45-1.35c-2.09-1.14-4.18-2.28-6.29-3.41l-2.77-1.49-6.14-3.24-3-1.53c-2-1-4.06-2.1-6.1-3.13l-3-1.53-6.12-3.06-3-1.46-6.24-3c-.92-.45-1.85-.88-2.78-1.32l-6.52-3.08-2-.91q-11.57-5.35-23.3-10.37l-2.35-1c-2-.85-4-1.67-6-2.5L2398,668l-5.6-2.27-4.09-1.64-5.43-2.13-4.31-1.66q-2.66-1-5.34-2l-4.46-1.66-5.28-1.93c-1.52-.56-3.05-1.1-4.58-1.65l-5.23-1.85-4.69-1.62-5.19-1.76-4.81-1.6-5.13-1.68-5-1.58-5-1.58c-1.77-.55-3.55-1.08-5.33-1.62-1.57-.48-3.14-1-4.73-1.43-2.62-.78-5.26-1.55-7.89-2.3-2-.57-3.95-1.12-5.93-1.67s-4.12-1.16-6.18-1.72l-4.58-1.21q-2.82-.76-5.66-1.5l-4.76-1.21c-1.84-.46-3.68-.93-5.53-1.38l-4.83-1.17-5.51-1.31-4.88-1.12-5.53-1.24-4.87-1.06-5.6-1.18-4.84-1c-1.9-.39-3.8-.76-5.7-1.13l-4.79-.93q-2.92-.56-5.86-1.08l-4.66-.85-6.15-1.06-4.42-.75-6.84-1.09-3.76-.59q-5.28-.81-10.58-1.55l-1.62-.22c-3-.41-6.05-.82-9.08-1.21l-3.87-.47c-2.28-.28-4.57-.57-6.87-.83l-4.39-.49c-2.13-.23-4.26-.47-6.4-.69-1.53-.16-3.08-.3-4.62-.45-2.07-.21-4.13-.41-6.2-.6l-4.75-.41-6.14-.51-4.79-.36-6.15-.43-4.8-.3-6.21-.36-4.75-.25-6.36-.28-4.62-.19c-2.22-.08-4.45-.14-6.67-.21l-4.35-.12c-2.46-.06-4.93-.11-7.39-.14l-3.65-.07c-3.68,0-7.37-.07-11.07-.07a887.79,887.79,0,0,0-381.44,85.52q5,4.49,9.87,9c1.07,1,2.12,2,3.18,3q3.35,3.12,6.67,6.27l3.6,3.43q3.21,3.08,6.39,6.18l3.38,3.29q4.26,4.18,8.48,8.41l2.52,2.54q3.8,3.82,7.55,7.69l3.76,3.9q2.75,2.85,5.48,5.73c1.35,1.43,2.7,2.85,4,4.28q2.64,2.82,5.26,5.66l3.89,4.2q3.32,3.63,6.6,7.29,2.47,2.74,4.92,5.51,2.84,3.19,5.65,6.4l4,4.66c1.57,1.82,3.13,3.63,4.69,5.46l4.08,4.81c1.58,1.87,3.14,3.75,4.71,5.63l3.82,4.61c2.22,2.69,4.41,5.39,6.6,8.11,1.34,1.65,2.66,3.31,4,5q2.83,3.55,5.65,7.14c1.11,1.41,2.2,2.83,3.3,4.25q2.6,3.33,5.16,6.68l3.16,4.17q2.65,3.5,5.27,7,1.44,1.92,2.87,3.85,4,5.35,7.85,10.77,6.19-2.21,12.44-4.29c1.3-.44,2.6-.85,3.9-1.28,2.89-.94,5.78-1.88,8.69-2.79l4.65-1.42c2.69-.82,5.38-1.63,8.08-2.41l4.91-1.41q4-1.12,8-2.21c1.63-.44,3.25-.88,4.88-1.3,2.82-.74,5.65-1.44,8.49-2.14,1.49-.37,3-.75,4.46-1.11,3.48-.83,7-1.62,10.47-2.4.85-.19,1.69-.4,2.54-.58q6.46-1.41,13-2.69c1.43-.28,2.87-.54,4.31-.81,2.93-.56,5.86-1.12,8.8-1.64,1.82-.32,3.64-.62,5.46-.92q3.87-.66,7.76-1.27l5.88-.89c2.47-.36,5-.71,7.44-1.05l6.09-.8c2.45-.31,4.92-.6,7.38-.88,2-.23,4.08-.48,6.13-.69,2.56-.27,5.12-.51,7.69-.75,2-.19,3.9-.39,5.86-.55q6.4-.56,12.83-1c2.17-.14,4.35-.24,6.53-.37,2.44-.14,4.89-.28,7.34-.39,1.18-.06,2.36-.1,3.54-.15,4-.16,8-.3,12-.39l2.06,0q6.69-.13,13.4-.14c2.78,0,5.54,0,8.31.05,1.66,0,3.31.06,5,.09l3.17.06q3.29.07,6.57.2l1.46,0q3.65.13,7.28.31l.71,0c2.74.13,5.49.28,8.22.44l.47,0q4.17.26,8.31.55l.35,0q4.23.31,8.44.67l.19,0a666.34,666.34,0,0,1,125.75,23.13l.21.06q3.9,1.11,7.77,2.27l.88.27c2.37.71,4.72,1.43,7.08,2.17l1.27.4q3.33,1,6.65,2.13l1.55.51c2.11.7,4.22,1.4,6.31,2.11l1.84.63c2,.69,4,1.38,6,2.09l2,.73,5.74,2.08,2.2.82c1.85.69,3.7,1.38,5.54,2.09.78.29,1.55.6,2.33.9l5.36,2.09,2.43,1,5.22,2.11,2.52,1c1.69.71,3.39,1.42,5.07,2.14l2.62,1.12,4.92,2.14,2.71,1.21c1.6.71,3.2,1.42,4.79,2.15l2.76,1.27c1.57.72,3.13,1.44,4.69,2.18l2.82,1.33,4.58,2.2,2.86,1.4,4.49,2.23,2.9,1.46q2.2,1.11,4.39,2.24l2.94,1.53,4.31,2.27,3,1.59,4.2,2.28,3,1.67,4.12,2.3,3,1.72,4,2.33,3.07,1.78,4,2.35c1,.61,2.06,1.22,3.08,1.84l3.89,2.37c1,.63,2.07,1.27,3.1,1.91l3.81,2.38c1,.65,2.09,1.31,3.13,2l3.72,2.39,3.15,2,3.64,2.41,3.17,2.11,3.57,2.42,3.18,2.18c1.17.8,2.33,1.61,3.49,2.42l3.2,2.25c1.14.81,2.28,1.62,3.41,2.44l3.22,2.32,3.33,2.43,3.24,2.4,3.24,2.43,3.27,2.48,3.15,2.43,3.29,2.55,3.06,2.42,3.32,2.64,3,2.4,3.36,2.74,2.85,2.37q1.71,1.41,3.4,2.84c.92.77,1.83,1.55,2.74,2.33q1.72,1.47,3.44,2.95l2.63,2.29,3.49,3.06c.84.74,1.66,1.49,2.49,2.23,1.19,1.06,2.38,2.12,3.56,3.2l2.34,2.14c1.22,1.12,2.44,2.23,3.65,3.36l2.13,2c1.26,1.18,2.53,2.37,3.78,3.56l1.91,1.83,3.94,3.81,1.58,1.55c1.4,1.38,2.81,2.76,4.2,4.16l1.1,1.11c1.54,1.55,3.08,3.1,4.61,4.67l.1.1a673.73,673.73,0,0,1,57.35,67l0,0q2.36,3.15,4.67,6.33l.12.16q2.27,3.1,4.5,6.24l.22.32c1.47,2.05,2.92,4.12,4.35,6.19l.3.42q2.1,3,4.17,6.09l.4.6q2,3,4,6l.5.75c1.29,1.95,2.55,3.91,3.82,5.87l.6.94q1.83,2.85,3.63,5.73l.72,1.14c1.16,1.86,2.3,3.72,3.44,5.59l.82,1.34c1.1,1.81,2.18,3.62,3.26,5.43l.93,1.57c1,1.74,2,3.48,3.05,5.23l1.07,1.84q1.43,2.51,2.84,5c.4.71.8,1.41,1.19,2.12.89,1.58,1.76,3.18,2.63,4.77l1.33,2.43q1.21,2.23,2.4,4.49l1.48,2.78c.74,1.4,1.46,2.8,2.18,4.2l1.62,3.13,2,3.87c.59,1.18,1.19,2.36,1.77,3.55s1.14,2.32,1.71,3.49,1.3,2.65,1.93,4c.5,1,1,2.06,1.47,3.09.7,1.49,1.4,3,2.09,4.47.41.88.82,1.76,1.22,2.65.76,1.65,1.52,3.31,2.26,5,.33.73.65,1.46,1,2.18q1.23,2.76,2.43,5.52l.72,1.67c.87,2,1.75,4.08,2.6,6.13.15.35.3.71.44,1.06q1.43,3.39,2.79,6.8c.07.15.13.31.19.46q6.12,15.19,11.5,30.75,6.66,19.17,12.16,38.86l.21.76q3.5,12.57,6.51,25.35c.11.47.23,1,.34,1.42q1.41,6,2.7,12.1c.15.68.29,1.36.43,2,.87,4.1,1.7,8.2,2.49,12.33l.09.47q1.13,5.94,2.15,11.92l.39,2.26q1,5.92,1.88,11.87c.13.85.25,1.69.37,2.54q.9,6.11,1.69,12.25c0,.24,0,.47.08.71.5,4,.95,7.92,1.38,11.89l.27,2.48q.63,6,1.14,12.05c.08.85.14,1.7.21,2.56q.53,6.26.93,12.55c0,.13,0,.26,0,.39.26,4.14.47,8.29.66,12.44,0,.81.07,1.62.1,2.43q.25,6.17.39,12.36c0,.81,0,1.62.05,2.43.08,4.3.14,8.6.14,12.92,0,3.55,0,7.08-.11,10.61-.06,3.77-.16,7.54-.28,11.29,0,1.3-.08,2.6-.13,3.9q-.21,5.39-.49,10.77c-.07,1.27-.15,2.55-.23,3.82-.15,2.66-.33,5.32-.52,8-.1,1.48-.2,3-.32,4.44-.26,3.33-.54,6.64-.85,10-.16,1.67-.32,3.33-.49,5q-.36,3.59-.76,7.16t-.82,7c-.27,2.27-.56,4.55-.86,6.81-.24,1.79-.47,3.58-.73,5.36q-.64,4.64-1.36,9.25c-.27,1.78-.57,3.55-.85,5.32-.33,2-.66,4-1,6-.39,2.25-.78,4.5-1.19,6.75q-.69,3.78-1.43,7.54-.53,2.7-1.07,5.4c-.47,2.27-.94,4.54-1.43,6.8s-1,4.73-1.56,7.1c-.47,2.06-.94,4.12-1.43,6.18q-.58,2.52-1.2,5c-.74,3.06-1.51,6.1-2.3,9.14q-.61,2.39-1.26,4.75-.91,3.43-1.87,6.85-.75,2.7-1.52,5.4c-.78,2.68-1.56,5.36-2.37,8-.42,1.42-.85,2.83-1.29,4.24q-1.49,4.83-3,9.62c-.36,1.1-.73,2.2-1.1,3.3-.89,2.69-1.8,5.38-2.72,8l-1.2,3.48-.44,1.23c-.79,2.22-1.58,4.44-2.39,6.65l-.06.16a667.57,667.57,0,0,1-86.31,162.12l-.28.39c-1.4,1.94-2.82,3.86-4.24,5.78-.2.28-.4.55-.61.82q-2,2.68-4,5.34l-.91,1.2q-1.89,2.48-3.79,4.92l-1.24,1.59q-1.77,2.25-3.55,4.49l-1.58,2q-1.64,2-3.29,4.06c-.64.79-1.28,1.57-1.93,2.35-1,1.22-2,2.43-3,3.64q-1.14,1.38-2.31,2.76l-2.7,3.18-2.73,3.17-2.36,2.71q-1.59,1.82-3.19,3.62c-.65.74-1.31,1.47-2,2.21q-1.87,2.1-3.78,4.18c-.62.68-1.24,1.37-1.87,2.05-1.29,1.41-2.6,2.81-3.9,4.21l-1.8,1.92q-2.07,2.2-4.17,4.38l-1.59,1.67c-1.56,1.62-3.13,3.22-4.71,4.82l-1.13,1.16q-6,6-12.08,11.9l-.61.58c-1.79,1.72-3.6,3.44-5.42,5.14l-1.7,1.59q-2.19,2-4.4,4.06l-2.11,1.92c-1.35,1.22-2.71,2.45-4.07,3.66L2503,1995q-2,1.72-3.91,3.44l-2.47,2.14q-1.92,1.65-3.85,3.29l-2.58,2.17-3.83,3.2-2.61,2.15-3.9,3.17-2.6,2.09-4,3.16-2.57,2c-1.39,1.09-2.8,2.16-4.2,3.24l-2.41,1.85c-1.56,1.18-3.12,2.34-4.69,3.51-.66.49-1.32,1-2,1.49q-6.72,5-13.56,9.76c-.71.51-1.44,1-2.16,1.5l-4.68,3.24-2.72,1.84c-1.4.94-2.79,1.89-4.19,2.82l-3,1.94q-2,1.34-4,2.64l-3.08,2-3.95,2.51-3.17,2q-2,1.23-4,2.44l-3.22,2-3.95,2.37-3.25,1.92c-1.33.79-2.67,1.56-4,2.34l-3.25,1.87-4.08,2.31-3.22,1.8c-1.42.79-2.84,1.56-4.26,2.34l-3.09,1.68-4.7,2.5-2.72,1.43c-2.44,1.28-4.9,2.54-7.36,3.79l-2,1-5.51,2.75-3.1,1.5-4.46,2.15-3.37,1.58c-1.42.66-2.83,1.33-4.26,2-1.16.54-2.33,1.06-3.5,1.59l-4.16,1.88-3.6,1.58-4.13,1.79-3.65,1.55c-1.37.59-2.76,1.16-4.14,1.74l-3.67,1.51-4.18,1.68-3.67,1.46c-1.41.56-2.83,1.1-4.24,1.65l-3.66,1.4c-1.45.55-2.9,1.08-4.36,1.62-1.19.44-2.38.89-3.58,1.32-1.52.56-3,1.1-4.57,1.64-1.14.4-2.27.82-3.42,1.21-1.72.61-3.46,1.2-5.19,1.78-.94.33-1.89.66-2.83,1q-4,1.34-8,2.61l-2.76.87c-1.79.57-3.57,1.13-5.36,1.68l-3.42,1c-1.58.48-3.17,1-4.76,1.42-1.2.36-2.42.7-3.63,1l-4.57,1.3-3.77,1-4.5,1.22-3.82,1c-1.5.38-3,.77-4.49,1.14-1.28.33-2.57.65-3.86,1l-4.51,1.09-3.86.91-4.57,1-3.83.85-4.68,1-3.75.78-4.88,1-3.59.71-5.27,1-3.25.6c-2.19.39-4.39.76-6.59,1.13l-2,.33q-4.24.69-8.52,1.34l-2.83.41c-1.93.28-3.86.57-5.8.83l-3.47.46-5.19.68-3.71.44-5,.58-3.81.41-4.94.5-3.87.37-4.92.43-3.9.32-4.93.37-3.9.27-5,.31c-1.29.07-2.58.15-3.87.21l-5.11.25-3.76.16c-1.78.07-3.57.13-5.36.18l-3.54.12-6,.12-3,.05q-4.47.06-9,.06a666.82,666.82,0,0,1-405-136.31,887.59,887.59,0,0,0,177.07-523.34c0-3.35.07-6.72.07-10.08a892.67,892.67,0,0,0-27.21-219.37,885.73,885.73,0,0,0-91.16-224.79A893.69,893.69,0,0,0,1529.5,824Q1515,811.25,1500,799.13q-15,12.14-29.5,24.91a895.15,895.15,0,0,0-125.13,135.54q-4.11,5.52-8.15,11.09c-1,1.35-1.94,2.71-2.91,4.07q-2.55,3.56-5.08,7.14-1.68,2.42-3.34,4.84c-1.5,2.17-3,4.33-4.49,6.52-1.16,1.72-2.31,3.45-3.47,5.18q-2.1,3.14-4.17,6.28c-1.19,1.81-2.36,3.63-3.53,5.45-1.32,2-2.64,4.08-3.94,6.14-1.2,1.88-2.37,3.77-3.55,5.67s-2.5,4-3.73,6-2.4,3.94-3.59,5.92-2.33,3.88-3.48,5.82-2.45,4.17-3.66,6.26c-.56,1-1.13,1.9-1.68,2.87-.47.81-.92,1.64-1.39,2.45q-2.19,3.84-4.35,7.72-1.52,2.7-3,5.41-2,3.66-4,7.32c-1.05,2-2.1,3.91-3.13,5.87-1.23,2.32-2.43,4.65-3.64,7-1.07,2.08-2.15,4.16-3.21,6.25q-1.7,3.38-3.37,6.77c-1.08,2.17-2.16,4.34-3.22,6.52s-2.13,4.45-3.19,6.68-2.13,4.46-3.17,6.7-2.06,4.49-3.08,6.74-2,4.47-3,6.72c-1.09,2.46-2.15,4.93-3.22,7.4-.89,2-1.79,4.08-2.66,6.13q-2.88,6.78-5.66,13.61-2.49,6.15-4.89,12.37l-1.43,3.69q-1.93,5.08-3.83,10.18c-.31.86-.64,1.72-1,2.58q-2.22,6.11-4.37,12.25c-.43,1.24-.85,2.48-1.28,3.71q-1.69,4.93-3.34,9.9l-1,3.18q-2.07,6.33-4,12.69c-.28.89-.54,1.78-.81,2.66q-1.71,5.57-3.35,11.17c-.25.86-.5,1.73-.76,2.59q-4,13.9-7.58,28l-.15.55c0,.18-.08.35-.13.53q-4.83,19.14-8.83,38.61c-.12.56-.23,1.13-.35,1.69q-1.14,5.64-2.22,11.3c-.11.6-.22,1.19-.34,1.79q-2.41,12.89-4.47,25.91c-.09.56-.17,1.13-.26,1.7q-.84,5.46-1.63,10.94c-.14,1-.28,2-.41,3q-.73,5.25-1.4,10.52c-.1.79-.21,1.57-.3,2.36q-.81,6.51-1.54,13c0,.06,0,.11,0,.17q-.67,6.19-1.27,12.43c-.1,1.14-.2,2.29-.31,3.43q-.43,4.76-.82,9.52c-.1,1.25-.2,2.5-.29,3.75q-.4,5.27-.75,10.55c0,.76-.1,1.52-.15,2.28q-.39,6.41-.7,12.82c0,1-.08,2.06-.13,3.08q-.21,4.89-.38,9.79c0,1.4-.09,2.81-.13,4.22q-.13,4.57-.21,9.16c0,1.31-.06,2.63-.08,3.94q-.09,6.44-.1,12.88c0,3.36,0,6.73.07,10.08,0,.67,0,1.35,0,2q.08,5.12.19,10.23c0,1.66.1,3.32.15,5q.12,3.76.25,7.53l.21,5q.18,4,.38,7.92c.08,1.44.15,2.88.23,4.32q.36,6,.77,12.07c0,.17,0,.34,0,.52q.42,5.88.93,11.75c.1,1.21.21,2.41.32,3.61q.39,4.44.83,8.87c.12,1.26.25,2.53.38,3.79q.49,4.77,1,9.53c.1.89.19,1.78.3,2.67q.72,6.19,1.53,12.36l.15,1.13q.73,5.51,1.54,11c.15,1.06.31,2.12.47,3.19q.69,4.64,1.43,9.26c.17,1,.33,2.09.5,3.14q.9,5.46,1.86,10.9l.18,1.08q1.1,6.19,2.29,12.35c.11.59.23,1.18.34,1.77.67,3.42,1.35,6.82,2,10.23.21,1,.42,2,.62,3q1,4.79,2.07,9.55c.18.84.36,1.68.55,2.51q2.71,12.09,5.76,24c0,.19.09.39.14.58.09.36.19.72.29,1.08q1.58,6.2,3.25,12.34c.17.61.34,1.23.5,1.84,1.24,4.51,2.5,9,3.81,13.47.13.46.27.92.41,1.39q1.74,6,3.57,11.87c.26.86.52,1.71.79,2.57q2,6.45,4.11,12.88c.19.55.38,1.1.56,1.66,1.22,3.7,2.48,7.39,3.75,11.07.38,1.11.76,2.22,1.15,3.33,1.44,4.1,2.89,8.2,4.39,12.29.2.55.41,1.09.61,1.65q2,5.43,4.08,10.82l1.35,3.5c1.59,4.08,3.19,8.15,4.83,12.2q2.82,6.94,5.75,13.82c.67,1.57,1.36,3.13,2,4.7,1.3,3,2.6,6,3.93,9,.81,1.82,1.65,3.63,2.47,5.45,1.24,2.73,2.47,5.46,3.74,8.17.87,1.88,1.77,3.75,2.66,5.62q1.88,4,3.78,7.91c.91,1.87,1.84,3.73,2.76,5.59q2,3.94,3.94,7.86c.91,1.81,1.84,3.61,2.77,5.41q2.07,4,4.18,8l2.71,5.08q2.25,4.17,4.53,8.31c.85,1.54,1.71,3.09,2.57,4.62q2.48,4.43,5,8.82c.47.82.92,1.64,1.39,2.45.34.59.69,1.17,1,1.75q2.07,3.55,4.17,7.09,1.38,2.34,2.78,4.66c1.4,2.31,2.8,4.62,4.22,6.93q1.47,2.4,3,4.8,2.07,3.33,4.18,6.64c1.07,1.7,2.16,3.39,3.25,5.07,1.35,2.1,2.7,4.19,4.07,6.27q1.82,2.74,3.64,5.47,1.92,2.89,3.87,5.77c1.38,2,2.78,4.06,4.18,6.08,1.17,1.7,2.33,3.39,3.51,5.08q2.52,3.57,5.07,7.12c1,1.32,1.88,2.65,2.83,4q4,5.53,8.1,11a666.82,666.82,0,0,1-405,136.31c-198.74,0-377.24-86.55-499.88-224A666.83,666.83,0,0,1,270.7,1503.08c-.07-3.35-.1-6.72-.1-10.08a667.52,667.52,0,0,1,168.46-444.16C555.09,918,721.57,832.89,908,824q16.08-.76,32.33-.77t32.32.77a666.64,666.64,0,0,1,192.69,38q13.88-19.31,28.56-38a1105.61,1105.61,0,0,1,127.87-136.95,887.79,887.79,0,0,0-381.44-85.52c-225.85,0-432.09,84-589.17,222.47a894.4,894.4,0,0,0-183.89,224.8A887.79,887.79,0,0,0,48.91,1493c0,3.36,0,6.73.06,10.08a889.73,889.73,0,0,0,304,660.43c156.86,137.56,362.4,220.92,587.4,220.92A888.21,888.21,0,0,0,1500,2186.87a888.21,888.21,0,0,0,559.66,197.56c3.67,0,7.34,0,11-.07l3.67-.06c2.44,0,4.88-.08,7.31-.14l4.33-.13,6.63-.21,4.6-.18,6.31-.28,4.73-.25c2.06-.11,4.12-.22,6.17-.35,1.6-.09,3.19-.2,4.78-.3,2-.13,4.07-.27,6.1-.42l4.78-.36,6.09-.5,4.72-.41,6.15-.58,4.62-.46c2.1-.21,4.19-.44,6.28-.67l4.45-.49c2.2-.25,4.39-.52,6.58-.79l4.11-.5c2.52-.32,5-.66,7.56-1l3.07-.41q5.3-.75,10.56-1.54l2.54-.4c2.67-.41,5.35-.83,8-1.26l4-.68c2.17-.37,4.35-.73,6.51-1.11l4.42-.8c2-.37,4-.73,6.05-1.11l4.61-.89,5.82-1.14,4.7-1c1.9-.39,3.79-.78,5.69-1.19l4.75-1c1.87-.41,3.74-.82,5.61-1.25q2.37-.52,4.74-1.08l5.58-1.31L2272,2359l5.56-1.39,4.69-1.18q2.8-.72,5.6-1.47l4.59-1.21c1.93-.52,3.85-1.06,5.77-1.59l4.37-1.21c2.16-.61,4.32-1.24,6.48-1.87l4-1.15q4.72-1.4,9.43-2.84l4.49-1.42c1.82-.57,3.64-1.13,5.46-1.72,1.63-.52,3.24-1.05,4.87-1.59l5-1.65,5-1.7,4.82-1.65,5.09-1.79c1.57-.56,3.13-1.11,4.69-1.68,1.72-.61,3.44-1.24,5.15-1.87l4.57-1.69,5.2-2,4.43-1.71c1.76-.68,3.52-1.36,5.28-2.06l4.27-1.7,5.38-2.16,4.06-1.68c1.84-.76,3.68-1.52,5.52-2.3,1.25-.52,2.49-1.06,3.74-1.59l5.79-2.49,3-1.31q16-7,31.59-14.64l2-1c2.2-1.08,4.4-2.18,6.59-3.28l2.55-1.27q3.2-1.62,6.37-3.26c.89-.46,1.78-.91,2.67-1.38,2.1-1.09,4.2-2.2,6.3-3.31.88-.47,1.77-.93,2.65-1.41,2.12-1.12,4.22-2.26,6.32-3.41l2.52-1.37c2.14-1.18,4.28-2.36,6.42-3.56l2.28-1.28q3.31-1.86,6.61-3.75l1.89-1.1c2.33-1.34,4.64-2.69,6.95-4l1.2-.72a894.91,894.91,0,0,0,186.6-147.2,1.7,1.7,0,0,1,.19-.19q6-6.17,11.83-12.46l1.29-1.39q5.7-6.14,11.27-12.36l1.11-1.25q5.69-6.39,11.26-12.87l.05-.05q5.41-6.32,10.71-12.75c.55-.68,1.11-1.35,1.67-2q5-6.15,10-12.39l1.84-2.34q5-6.35,9.87-12.77c.33-.44.65-.88,1-1.31q4.69-6.24,9.29-12.55l1.26-1.72q4.68-6.48,9.24-13c.59-.85,1.19-1.7,1.77-2.55q4.53-6.54,8.94-13.16c.47-.71.93-1.42,1.4-2.12q9.26-14,18-28.35c.4-.67.81-1.33,1.22-2q4.21-7,8.32-14.06c.19-.32.39-.64.58-1,.28-.48.55-1,.83-1.47q2.94-5.1,5.82-10.25c.35-.63.71-1.26,1.06-1.9q3.28-5.92,6.49-11.9l1.41-2.67q2.55-4.77,5-9.59l1.65-3.22c2-4,4-8,6-12,.23-.48.46-1,.7-1.44q2.61-5.35,5.16-10.74l1.7-3.62q2.34-5,4.63-10.07c.35-.78.71-1.56,1.07-2.35,1.81-4,3.58-8.09,5.34-12.16.48-1.13,1-2.27,1.45-3.4q2-4.79,4-9.59c.48-1.15,1-2.3,1.42-3.45q2.52-6.18,4.95-12.41c.29-.73.56-1.47.85-2.2q2-5.31,4-10.65c.46-1.23.92-2.46,1.37-3.69q2.05-5.61,4-11.26c.2-.54.39-1.08.58-1.63q2.24-6.39,4.36-12.82c.39-1.16.76-2.32,1.14-3.47q1.7-5.16,3.32-10.35l1-3.12q2-6.51,3.94-13.06c.24-.82.47-1.64.7-2.46q1.6-5.49,3.12-11c.33-1.19.66-2.38,1-3.57,1.17-4.3,2.32-8.61,3.42-12.94,0-.12.07-.23.1-.35v-.08q1.5-5.86,2.91-11.77C2926.74,1700.77,2927,1699.46,2927.34,1698.15Zm-1354-424.52A668.16,668.16,0,0,1,1610.07,1493c0,3.36,0,6.73-.09,10.08A666.42,666.42,0,0,1,1500,1861q-3-4.56-5.93-9.17c-.65-1-1.29-2.06-1.94-3.09-1.29-2.06-2.58-4.11-3.84-6.18-.76-1.23-1.5-2.47-2.25-3.71q-1.71-2.83-3.41-5.7-1.16-2-2.29-3.92-1.63-2.81-3.24-5.62l-2.25-4q-1.59-2.87-3.17-5.74c-.71-1.3-1.43-2.61-2.13-3.91q-1.62-3-3.22-6.08c-.64-1.21-1.29-2.43-1.92-3.65-1.2-2.32-2.38-4.66-3.55-7-.47-1-1-1.88-1.43-2.83q-2.43-4.9-4.79-9.86c-.35-.72-.68-1.45-1-2.18q-1.83-3.87-3.62-7.78c-.58-1.27-1.15-2.56-1.72-3.84q-1.4-3.09-2.75-6.19c-.64-1.46-1.26-2.93-1.89-4.4-.81-1.89-1.62-3.79-2.41-5.7q-1-2.37-2-4.74-1.1-2.68-2.16-5.38-1-2.53-2-5.07l-1.92-5c-.69-1.82-1.38-3.63-2-5.46q-.81-2.21-1.6-4.43c-.74-2-1.48-4.08-2.19-6.12-.19-.53-.37-1.06-.55-1.59q-1.77-5.1-3.46-10.23c-.37-1.12-.72-2.24-1.08-3.36q-1.38-4.24-2.7-8.52c-.43-1.4-.85-2.8-1.27-4.2-.78-2.59-1.55-5.18-2.29-7.78q-.68-2.34-1.34-4.69-1-3.69-2-7.39c-.45-1.67-.9-3.33-1.33-5-.62-2.39-1.22-4.8-1.81-7.2-.43-1.73-.86-3.45-1.28-5.18-.57-2.4-1.12-4.82-1.66-7.23-.4-1.73-.8-3.46-1.18-5.19-.58-2.63-1.12-5.28-1.66-7.92q-.88-4.3-1.72-8.63c-.5-2.61-1-5.22-1.48-7.84-.38-2.11-.72-4.24-1.08-6.36s-.71-4.08-1-6.13c-.36-2.22-.69-4.44-1-6.67q-.45-2.94-.87-5.9-.48-3.39-.91-6.8-.39-2.92-.74-5.86c-.28-2.28-.54-4.57-.8-6.86-.22-2-.42-3.92-.62-5.88-.24-2.3-.46-4.6-.68-6.9-.18-2-.34-4-.51-6-.18-2.29-.37-4.58-.54-6.88-.15-2-.27-4.1-.4-6.15-.14-2.24-.29-4.49-.41-6.74s-.21-4.51-.31-6.77c-.09-2.06-.19-4.12-.26-6.18q-.22-6.32-.32-12.65c-.07-3.53-.1-7.06-.1-10.61q0-6.81.14-13.6c0-1.5.09-3,.13-4.48.08-3,.16-6.05.28-9.06.07-1.77.16-3.54.25-5.31q.19-4.1.43-8.18c.11-1.87.24-3.73.36-5.6.18-2.62.38-5.24.58-7.86.16-1.89.31-3.77.48-5.66q.35-3.91.74-7.81c.19-1.85.37-3.7.57-5.55.29-2.69.61-5.38.94-8.06.2-1.73.4-3.45.62-5.17.4-3.07.83-6.12,1.26-9.17.19-1.32.36-2.64.56-4q1-6.52,2.06-13c.15-.86.31-1.72.46-2.59q.92-5.22,1.88-10.42c.28-1.45.57-2.89.86-4.34.57-2.89,1.14-5.78,1.75-8.66.32-1.54.66-3.08,1-4.62q.92-4.2,1.87-8.38c.35-1.51.71-3,1.07-4.51q1-4.3,2.11-8.6c.34-1.36.69-2.72,1-4.08.81-3.12,1.65-6.24,2.5-9.34l.87-3.18q1.6-5.68,3.29-11.33c.11-.35.2-.7.31-1q3.93-13,8.36-25.8,3.24-9.37,6.77-18.62l.46-1.24c.88-2.29,1.78-4.56,2.67-6.84.51-1.28,1-2.57,1.53-3.85.78-1.94,1.58-3.87,2.38-5.81q1-2.43,2-4.85,1.1-2.58,2.2-5.14,1.21-2.8,2.45-5.59,1-2.25,2-4.49c1-2.19,2-4.36,3-6.53.55-1.18,1.09-2.37,1.64-3.54q2.22-4.68,4.5-9.32c.11-.23.22-.47.34-.7q2.58-5.22,5.24-10.39l.64-1.22q2.28-4.43,4.64-8.81c.44-.83.89-1.65,1.34-2.47,1.36-2.5,2.72-5,4.11-7.47l1.62-2.87c1.33-2.36,2.67-4.7,4-7l1.72-2.95c1.37-2.33,2.76-4.64,4.16-7,.57-.94,1.13-1.89,1.71-2.83,1.49-2.43,3-4.86,4.52-7.27.49-.79,1-1.57,1.47-2.35q3-4.77,6.13-9.49A665.93,665.93,0,0,1,1573.3,1273.63Z"/></g></svg>