<svg xmlns="http://www.w3.org/2000/svg" viewBox="0 0 3000 3000"><defs><style>.cls-1{fill:#fff;}</style></defs><g id="Capa_3" data-name="Capa 3"><path class="cls-1" d="M2923.88,1273.63a885,885,0,0,0-91.16-224.79A894.4,894.4,0,0,0,2648.83,824c-157.08-138.47-363.32-222.47-589.17-222.47a887.79,887.79,0,0,0-381.44,85.52A1105.61,1105.61,0,0,1,1806.09,824q14.69,18.65,28.56,38a666.64,666.64,0,0,1,192.69-38q16.07-.76,32.32-.77T2092,824c186.44,8.85,352.92,94,469,224.8A667.52,667.52,0,0,1,2729.4,1493c0,3.36,0,6.73-.1,10.08a666.83,666.83,0,0,1-169.76,435.63c-122.64,137.47-301.14,224-499.88,224a666.82,666.82,0,0,1-405-136.31,894,894,0,0,0,57.87-87.71,887.16,887.16,0,0,0,119.2-435.63c0-3.35.07-6.72.07-10.08a893.15,893.15,0,0,0-27.21-219.37,885.73,885.73,0,0,0-91.16-224.79A893.69,893.69,0,0,0,1529.5,824Q1515,811.25,1500,799.13q-15,12.14-29.5,24.91a893.69,893.69,0,0,0-183.9,224.8A887.79,887.79,0,0,0,1168.23,1493c0,3.36,0,6.73.07,10.08a888.53,888.53,0,0,0,177.07,523.34,666.82,666.82,0,0,1-405,136.31c-198.74,0-377.24-86.55-499.88-224A666.83,666.83,0,0,1,270.7,1503.08c-.07-3.35-.1-6.72-.1-10.08a667.52,667.52,0,0,1,168.46-444.16C555.09,918,721.57,832.89,908,824q16.08-.76,32.33-.77t32.32.77a666.64,666.64,0,0,1,192.69,38q13.89-19.31,28.56-38a1105.61,1105.61,0,0,1,127.87-136.95,887.79,887.79,0,0,0-381.44-85.52c-225.85,0-432.09,84-589.17,222.47a894.4,894.4,0,0,0-183.89,224.8A887.79,887.79,0,0,0,48.91,1493c0,3.36,0,6.73.06,10.08a889.73,889.73,0,0,0,304,660.43c156.86,137.56,362.4,220.92,587.4,220.92A888.21,888.21,0,0,0,1500,2186.87a888.21,888.21,0,0,0,559.66,197.56c225,0,430.54-83.36,587.4-220.92a894.79,894.79,0,0,0,184.77-224.8A887.16,887.16,0,0,0,2951,1503.08c0-3.35.06-6.72.06-10.08A892.67,892.67,0,0,0,2923.88,1273.63ZM1610,1503.08A666.42,666.42,0,0,1,1500,1861a666.42,666.42,0,0,1-110-357.92c-.06-3.35-.09-6.72-.09-10.08A666.95,666.95,0,0,1,1500,1125a666.95,666.95,0,0,1,110.07,368C1610.07,1496.36,1610,1499.73,1610,1503.08Z"/><path class="cls-1" d="M1390,1503.85A666.12,666.12,0,0,0,1500,1861a673.17,673.17,0,0,1-154.63,165.42,887.51,887.51,0,0,1-177.06-522.57c-.06-3.61-.08-7.22-.08-10.85a887.76,887.76,0,0,1,177.14-533.42A673.17,673.17,0,0,1,1500,1125a666.56,666.56,0,0,0-110.07,368C1389.93,1496.63,1390,1500.24,1390,1503.85Z"/><path class="cls-1" d="M2951.09,1493c0,3.63,0,7.24-.08,10.85-5.8,487.33-402.66,880.58-891.35,880.58A888.21,888.21,0,0,1,1500,2186.87a896.8,896.8,0,0,0,154.63-160.45,666.82,666.82,0,0,0,405,136.31c366.26,0,663.85-294,669.63-658.88.08-3.61.11-7.22.11-10.85,0-369.89-299.85-669.73-669.74-669.73a668.3,668.3,0,0,0-225,38.74,1105.76,1105.76,0,0,0-156.43-174.92,887.79,887.79,0,0,1,381.44-85.52C2552,601.57,2951.09,1000.68,2951.09,1493Z"/></g></svg>